<svg width="1500" height="750" xmlns="http://www.w3.org/2000/svg"><path fill="#FDFDFD" d="M0 0h1500v750H0z"/><path fill="#FDFDFD" d="M714 170q60.48-.1 120.94-.15l14.34-.01h2.88l45.98-.07q23.64-.05 47.3-.05 14.55 0 29.1-.04l20.06-.02q5.76 0 11.51-.02c15.8-.06 31.47.34 47.22 1.7l2.14.17c8.76.74 17.06 2.15 25.53 4.49q2.4.56 4.82 1.07a305 305 0 0 1 30.62 8.56l3.5 1.16c5.22 1.78 10.17 3.62 15.06 6.21q2.1.74 4.25 1.38c6.18 1.98 11.9 4.9 17.44 8.25a55 55 0 0 0 7.21 3.42A89 89 0 0 1 1181 216q2.1 1.2 4.25 2.31a79 79 0 0 1 10.6 7.03c2.45 1.89 4.95 3.68 7.46 5.47 13.03 9.47 25.97 20.12 36.69 32.19v2l1.63.59c3.46 2.06 5.69 4.96 8.24 8.04l1.63 1.92A236 236 0 0 1 1262 289l3.06 4.06L1268 297l1.38 1.85 1.3 1.77 1.14 1.54c1.61 2.51 2.85 5.17 4.18 7.84q1.89 3.32 3.81 6.63C1290 334.28 1290 334.28 1290 338l3.66-.03q17.14-.15 34.29-.23 8.81-.03 17.62-.12 8.52-.07 17.04-.1 3.23 0 6.47-.05c16.81-.2 31.67.9 44.92 12.53 9.48 9.28 13.16 18.72 13.3 31.9v2.94l.03 3.16.04 10.3.03 7.2.03 15.09q.01 9.63.08 19.26.04 7.43.04 14.87 0 3.55.04 7.1c.19 23.31.19 23.31-5.59 33.18l-1.62 3.56A19 19 0 0 1 1416 504l-1.37 1.44c-10.13 9.73-21.75 12.9-35.46 12.79h-2.85q-4.6 0-9.2-.04h-6.42l-16.82-.05-17.2-.04q-16.83-.03-33.68-.1a107 107 0 0 0-2.72 7.23c-4.24 13.03-11.34 25.64-19.28 36.77l-2.75 4.25c-6.45 9.68-13.95 18.7-21.25 27.75l-2.07 2.6c-5.62 6.96-5.62 6.96-9.93 8.4l-2 4c-1.99 1.96-1.99 1.96-4.31 3.94a122 122 0 0 0-7.16 6.53c-9.37 9.37-20.27 16.71-31.27 24.02l-6.03 4.06c-16.06 10.72-33.91 18.09-51.71 25.4q-2.97 1.25-5.9 2.61c-9.58 3.8-19.81 6.05-29.82 8.5q-3.45.85-6.88 1.75c-26.37 6.93-53.16 7.5-80.27 7.42H997.7l-20.61-.02-29.8-.02q-24.2 0-48.38-.04l-46.95-.04h-17.49L714 693v-49l-10.48.01-95.33.1h-15.03l-40.25.04-41.34.04q-12.75 0-25.49.03a7860 7860 0 0 1-27.58.02c-32.52.09-32.52.09-47.63-4.47-3.41-.91-6.82-1.45-10.3-2.02-9.14-1.57-17.66-4.67-26.32-7.91q-2.92-1.09-5.85-2.13c-8.2-3-15.9-6.81-23.64-10.8q-2.42-1.24-4.86-2.44a170 170 0 0 1-8.9-4.9l-3-1.75c-12.7-7.7-24.35-16.64-35.46-26.46l-4.17-3.62a103 103 0 0 1-11.57-11.63c-1.97-2.31-4.04-4.51-6.11-6.74-7.52-8.33-14-17.71-19.69-27.37l-1.68-2.8a175 175 0 0 1-14.2-29.42C234 497 234 497 232 494c-.56-2.05-.56-2.05-1-4.31a48 48 0 0 0-1.9-7.21c-1.64-5.18-2.61-10.47-3.66-15.8l-.67-3.3c-7.85-39.41-.9-79.32 16.23-115.38l1.53-3.26c2.9-6.03 6.19-11.68 9.86-17.27q1.6-2.45 3.1-4.97c5.06-8.37 11.25-15.63 17.92-22.73 2.09-2.23 4.07-4.5 6.03-6.83 8.22-9.43 18.13-17.2 28.03-24.77l3.95-3.05A95 95 0 0 1 324 257l2.37-1.43q3.95-2.34 8-4.5 4.74-2.55 9.38-5.26A100 100 0 0 1 354 241l3.23-1.36c14.83-6.07 30.01-11.54 45.77-14.64l4.61-1c22.37-4.68 44.75-5.3 67.53-5.23h7.88l16.78.02q12.14.03 24.27.02 19.7 0 39.39.04l40.6.04h11.87L714 219z"/><path fill="#8EBDE5" d="M714 170q60.48-.1 120.94-.15l14.34-.01h2.88l45.98-.07q23.64-.05 47.3-.05 14.55 0 29.1-.04l20.06-.02q5.76 0 11.51-.02c15.8-.06 31.47.34 47.22 1.7l2.14.17c8.76.74 17.06 2.15 25.53 4.49q2.4.56 4.82 1.07a305 305 0 0 1 30.62 8.56l3.5 1.16c5.22 1.78 10.17 3.62 15.06 6.21q2.1.74 4.25 1.38c6.18 1.98 11.9 4.9 17.44 8.25a55 55 0 0 0 7.21 3.42A89 89 0 0 1 1181 216q2.1 1.2 4.25 2.31a79 79 0 0 1 10.6 7.03c2.45 1.89 4.95 3.68 7.46 5.47 13.03 9.47 25.97 20.12 36.69 32.19v2l1.63.59c3.46 2.06 5.69 4.96 8.24 8.04l1.63 1.92A236 236 0 0 1 1262 289l3.06 4.06L1268 297l1.38 1.85 1.3 1.77 1.14 1.54c1.61 2.51 2.85 5.17 4.18 7.84q1.89 3.32 3.81 6.63C1290 334.28 1290 334.28 1290 338l3.66-.03q17.14-.15 34.29-.23 8.81-.03 17.62-.12 8.52-.07 17.04-.1 3.23 0 6.47-.05c16.81-.2 31.67.9 44.92 12.53 9.48 9.28 13.16 18.72 13.3 31.9v2.94l.03 3.16.04 10.3.03 7.2.03 15.09q.01 9.63.08 19.26.04 7.43.04 14.87 0 3.55.04 7.1c.19 23.31.19 23.31-5.59 33.18l-1.62 3.56A19 19 0 0 1 1416 504l-1.37 1.44c-10.13 9.73-21.75 12.9-35.46 12.79h-2.85q-4.6 0-9.2-.04h-6.42l-16.82-.05-17.2-.04q-16.83-.03-33.68-.1a107 107 0 0 0-2.72 7.23c-4.24 13.03-11.34 25.64-19.28 36.77l-2.75 4.25c-6.45 9.68-13.95 18.7-21.25 27.75l-2.07 2.6c-5.62 6.96-5.62 6.96-9.93 8.4l-2 4c-1.99 1.96-1.99 1.96-4.31 3.94a122 122 0 0 0-7.16 6.53c-9.37 9.37-20.27 16.71-31.27 24.02l-6.03 4.06c-16.06 10.72-33.91 18.09-51.71 25.4q-2.97 1.25-5.9 2.61c-9.58 3.8-19.81 6.05-29.82 8.5q-3.45.85-6.88 1.75c-26.37 6.93-53.16 7.5-80.27 7.42H997.7l-20.61-.02-29.8-.02q-24.2 0-48.38-.04l-46.95-.04h-17.49L714 693v-48l11.96-.02 123.07-.3h2.87l45.92-.1 47.2-.12 29.07-.07a11104 11104 0 0 0 31.49-.07c22.5-.02 44.67-.44 66.67-5.57l4.12-.93c10.4-2.39 20.6-5.2 30.63-8.82l1.95-.7c9.73-3.5 9.73-3.5 13.53-5.82 2.52-1.48 2.52-1.48 5.37-2.43 3.73-1.24 7.09-2.99 10.53-4.86l2-1.09c4.66-2.53 9.2-5.17 13.62-8.1l2.27-1.5q3.37-2.24 6.73-4.5l3.31-2.19a89 89 0 0 0 4.94-3.56C1173 593 1173 593 1175 593v-2c1.62-1.41 1.62-1.41 3.88-3.06a129 129 0 0 0 21.53-20.29L1202 566h2l.66-1.6c1.84-3.3 4.3-6 6.78-8.84 3.24-3.7 6.13-7.25 8.56-11.56l3.31-5.19 1.87-2.95q1.64-2.58 3.33-5.13c4.9-7.64 8.1-16.01 11.51-24.4a235 235 0 0 1 3.1-7c5.46-12.21 7.53-26.22 9.88-39.33l.55-2.99c1.44-8.35 1.75-16.48 1.7-24.95l.02-3.8c-.02-12.64-1.97-24.7-4.7-37.01l-.63-2.88c-1.8-8.17-3.73-16.3-7.38-23.87a128 128 0 0 1-4.31-10.12 128 128 0 0 0-17.43-30.99c-1.82-2.39-1.82-2.39-3.7-5.27a106 106 0 0 0-7.8-9.87l-1.6-1.85-4.72-5.4-2.5-2.89c-4-4.54-8.1-8.69-12.73-12.59-1.77-1.52-1.77-1.52-4.4-4.2-2.59-2.53-5.35-4.35-8.37-6.32l-1.41-1.42c-7.17-7.11-17.08-12.17-25.59-17.58l-2.43-1.58A75 75 0 0 0 1133 248q-1.88-.92-3.75-1.87c-7.9-4-15.8-7.53-24.25-10.13l-5.87-1.84-4.27-1.32a218 218 0 0 1-10.36-3.47c-5.97-2.03-12.26-2.9-18.46-3.98q-3.07-.61-6.1-1.37c-5.3-1.18-10.6-1.7-16.01-2.12l-3.28-.26c-13.4-.95-26.83-.95-40.27-.96l-11.58-.03-19.96-.05q-14.44-.02-28.87-.06l-46.87-.12-45.46-.1-2.84-.01-14.11-.04L714 220z"/><path fill="#FEF604" d="M441.88 168.88h31.49l17.48.01 25.28.02a80096 80096 0 0 1 83.34.04h12.31L714 169v50l-24.04.06-76.4.22-11.89.04h-2.4q-19.08.06-38.18.1l-39.27.12-24.17.07a8264 8264 0 0 0-26.2.07c-23.2.03-45.77 1.28-68.45 6.32l-2.17.48c-17.9 4-36.4 9.85-52.69 18.4q-3.56 1.84-7.17 3.59c-13.63 6.7-25.7 15-37.78 24.15l-2.21 1.67a76 76 0 0 0-8.87 7.6C290 284 290 284 288 284l-1 3c-1.53 1.47-1.53 1.47-3.5 3.06-8.21 7-14.77 15.39-21.24 23.96q-2.15 2.85-4.4 5.61a42 42 0 0 0-4.17 6.43 357 357 0 0 1-8.04 13.95A99 99 0 0 0 241 350l-1.87 4.24c-14.67 33.63-21.19 71.16-13.6 107.47.53 2.56 1 5.13 1.49 7.7 2.75 14.49 2.75 14.49 4.98 19.59l.81 3.19c1.25 4 2.93 7.48 4.87 11.18 1.58 3.16 2.93 6.39 4.32 9.63q1.69 3.55 3.44 7.06l1.74 3.54c1.76 3.3 3.72 6.31 5.82 9.4l2.63 4.56c7.93 13.26 18.48 24.58 29.37 35.44l2.18 2.29c6.75 6.99 14.08 12.88 21.82 18.71l2.88 2.2a194 194 0 0 0 31.83 19.16q3.42 1.71 6.72 3.66c3.65 2.11 7.42 3.57 11.38 4.98l4.27 1.56 2.06.75q3.46 1.3 6.86 2.75c11.33 4.53 22.73 7.49 34.73 9.6 3.66.64 7.15 1.3 10.7 2.4 8.6 2.28 17.65 2.09 26.49 2.1l3.48.01 11.46.04 8.25.03 17.72.05 25.62.08a82318 82318 0 0 0 81.95.26h2.52l12.5.05L714 644v49q-50.85.07-101.68.1l-12.04.01h-2.42l-38.67.04-39.75.04-24.48.03h-16.84q-4.85 0-9.68.02c-15.27.04-30.26-.54-45.44-2.24l-3.89-.42c-18.99-2.1-36.9-7.07-55.11-12.58l-3.04-.9-2.7-.78-2.3-.67c-2.8-.93-5.33-2.31-7.96-3.65q-2.15-.75-4.31-1.44C329.7 666.01 316.75 658.22 304 651l-3.47-1.94-3.78-2.12-1.8-1A69 69 0 0 1 285 639l-4.76-3.35a216 216 0 0 1-17.89-13.8A166 166 0 0 1 253 613a525 525 0 0 0-4.87-4.31A118 118 0 0 1 236 596l-3.25-3.81-1.4-1.65C230 589 230 589 228.64 587.7c-2.37-2.45-4.38-5.17-6.44-7.88l-1.35-1.76-2.64-3.48-3.01-3.89a84 84 0 0 1-7.77-12.06 328 328 0 0 0-4.42-7.84c-5.6-9.7-5.6-9.7-7.95-14.63q-1.13-2.31-2.35-4.59c-4.36-8.3-7.43-16.79-10.32-25.69l-.73-2.22c-10.53-32.26-13.75-65.35-10.34-99.15l.36-3.55c.7-6.32 1.8-12.25 3.6-18.35a85 85 0 0 0 1.71-7.6 132 132 0 0 1 4.33-15.88l.94-2.9c2.88-8.82 5.94-17.26 10.75-25.22q1.08-2.48 2.12-4.98a170 170 0 0 1 14.82-26.58l1.26-1.92a90 90 0 0 1 6.43-8.67A59 59 0 0 0 223 281a206 206 0 0 1 5.13-6.25l1.46-1.72a144 144 0 0 1 15.5-15.81c2.35-2.73 2.44-4.09 2.52-7.64l.1-3.1.04-3.23.09-3.27q.1-3.99.16-7.98c1.99 3.64 2.46 6.9 3 11l1 1q.06 3 0 6l2.11-2.16c2.9-2.9 5.95-5.58 9.08-8.22l1.72-1.45A181 181 0 0 1 280 227l4.75-3.38a423 423 0 0 1 14.25-9.51c3.57-2.3 7.2-4.26 11-6.11l7.13-3.81c18.7-10 18.7-10 28.1-13.23q3.07-1.07 6.09-2.26c6.1-2.3 12.37-4.14 18.61-6.03l6.5-2A262 262 0 0 1 403 174l2.9-.58c8.28-1.61 16.7-2.11 25.09-2.72l3.08-.24 2.8-.2c2.37-.29 2.7-1.23 5.01-1.38"/><path fill="#0160B4" d="M846.33 252.73h21.17q9.08.02 18.16 0a5130 5130 0 0 1 20.83 0c18.86-.03 38.46-.05 56.82 4.77l3 .78c16 4.46 28.19 12.95 39.69 24.72l2.66 2.5c13.24 14.15 15.13 36.69 14.72 55.1-.97 19.47-9.56 37.27-23.63 50.65-13.59 11.84-31.53 19.49-49.3 22.21q-2.7.41-5.4.9c-18.26 3.3-36.46 3-54.94 2.85q-6.3-.05-12.59-.06-12.26-.06-24.52-.15l.02 2.89q.08 13.52.14 27.05.01 6.96.07 13.9l.06 13.45.03 5.1c.13 13.96-.31 24.72-10.55 35.22-9.12 7.87-18.98 9.2-30.61 8.61a29.6 29.6 0 0 1-19.58-10.17c-7.98-10.34-7.29-20.6-7.21-33.13l-.02-6.43q-.02-8.7.01-17.4v-18.24q0-15.3.04-30.62.06-17.7.02-35.37-.02-17.04 0-34.07V323.3q-.01-8.53.04-17.06V300c-.07-20.14-.07-20.14 4.54-28l1.81-3.25c7.04-8.85 16.16-13.66 27.27-15.37 9.05-.88 18.17-.66 27.25-.65"/><path fill="#0160B3" d="M527 257c9.13 7.97 12.79 20.65 16.47 31.8a91 91 0 0 0 5.66 13.44 36 36 0 0 1 2.43 6.88A57 57 0 0 0 556 320q1.13 3.2 2.15 6.42c2.93 8.91 6.4 17.65 9.79 26.4a656 656 0 0 1 11.68 32.12 90 90 0 0 0 2.88 7.56 84 84 0 0 1 2.81 7.44c3.2 9.8 7 19.4 10.88 28.94a122 122 0 0 1 5.07 14.87c.96 2.91 2.33 5.54 3.74 8.25 2.86-7.56 5.7-15.12 8.38-22.75a411 411 0 0 1 7.77-19.97c2.01-4.95 3.7-9.9 5.13-15.04A37 37 0 0 1 629 388c1.95-3.68 3.1-7.37 4.23-11.37 1.9-6.46 4.35-12.7 7.02-18.88a264 264 0 0 0 6.56-17.75c2.9-8.47 6.03-16.79 9.4-25.08a428 428 0 0 0 8.66-23.5c7.5-22.02 7.5-22.02 14.13-29.42l1.6-1.96c5.12-5.76 11.16-9.52 18.94-10.3q4.35-.22 8.71-.24l2.87-.02c9.6.18 16.17 3.48 23.5 9.77 5.36 6.2 6.85 11.3 6.73 19.48-.6 5.56-2.73 10.28-5.04 15.33L735 297.1q-2.65 6-5.38 11.96l-1.34 2.94-1.21 2.62a131 131 0 0 0-3.33 8.45c-1.07 2.83-2.32 5.57-3.56 8.32-1.93 4.34-3.76 8.72-5.6 13.1a148 148 0 0 1-3.48 7.3c-2.42 4.8-4.5 9.71-6.59 14.66-4.35 10.26-4.35 10.26-6.53 15.13A617 617 0 0 0 692 395.5a504 504 0 0 1-6 13.93c-2.62 5.86-4.8 11.9-7 17.93-1.48 3.96-2.95 7.75-5.1 11.4a56 56 0 0 0-4.34 9.43A498 498 0 0 1 662 467l-2.37 5.75L657 479l-.79 1.9c-6.6 15.94-14.37 31.8-31.05 39a62.4 62.4 0 0 1-45.41-.85c-11.54-5.37-21.25-16.18-25.94-27.99L552 486a467 467 0 0 0-8.75-20.22c-2.2-4.88-4.21-9.83-6.25-14.78q-4.47-10.76-9-21.5a4286 4286 0 0 1-7.85-18.72l-2.46-6-1.32-3.22-1.16-2.87C514 396 514 396 512.48 393.53c-1.63-2.79-2.48-5.46-3.48-8.53-1.21-2.9-2.51-5.76-3.81-8.62a641 641 0 0 1-8.11-18.79q-1.97-4.65-4.05-9.25c-1.66-3.77-3.22-7.6-4.8-11.4a265 265 0 0 0-3.48-7.88c-1.35-3-2.32-5.77-2.75-9.06h-2l-.52-1.94-.73-2.62-.7-2.57a47 47 0 0 0-4.02-7.99c-1.76-3.22-2.97-6.62-4.22-10.07l-.79-2.11c-3-8.16-4.93-16.74-2.18-25.3 4.31-8.42 11.06-13.57 19.86-16.69 13.75-4.25 28.78-2.33 40.3 6.29"/><path fill="#85C124" d="M271 43c3.7 4 6.42 8.2 9 13l1.66 2.95c3.38 6.07 6.3 12.02 8.52 18.61q.81 2.41 1.8 4.78c11.15 28.9 7.68 62.36-4.43 90.28-2.58 5.66-5.24 11.32-9 16.3-1.55 2.08-1.55 2.08-2.91 4.4-5.48 8.96-12.39 17.2-20.64 23.68l-3.31 2.94C249 222 249 222 246 222l-.94-5.31-.53-3a171 171 0 0 1-1.63-25.6v-2.99l.04-9.29.01-6.35L243 154l-1.02 2.67-1.35 3.51-1.34 3.48-2.4 6.13c-6.43 16.32-9.12 33.98-11.89 51.21a13 13 0 0 1-4.43-6.9l-.71-2.36-1.51-5.2c-4.41-15.4-8.43-30.99-8.59-47.07l-.02-2.4-.04-5.03q0-2.52-.06-5.04c-.2-11.69.94-21.79 4.36-33l1-3.42c2.13-7.07 5.26-13.25 9-19.58l1.54-2.66c3.65-6.2 7.32-12.25 12.46-17.34q2.56-2.91 5.09-5.87c4.61-5.14 9.66-9.5 15.03-13.82l2.17-1.76C268.4 43 268.4 43 271 43"/><path fill="#FCFDFD" d="M1303 375h80v2h2a21138 21138 0 0 1 .15 57.13 5982 5982 0 0 1 .06 24.14q.03 4.66.02 9.32l.02 2.81v4.79C1385 477 1385 477 1383 479c-2.5.19-4.89.25-7.39.23h-2.3q-3.78 0-7.57-.04h-5.24l-13.8-.05-14.07-.04q-13.82-.03-27.63-.1l.47-5.74.26-3.23q.31-3.6.8-7.16c3.97-29.13 1.7-59.1-3.53-87.87"/><path fill="#FDFDFD" d="m852 298 26.56-.12 8.29-.06c41.9-.16 41.9-.16 58.15 14.18 6.5 7.2 8.75 16.4 8.39 25.98-1.28 9.97-4.64 17.44-12.58 23.64-12.07 8.12-25.79 8.69-39.88 8.57h-3.78q-6.93-.02-13.84-.06L852 370z"/><path fill="#84C024" d="m192 196 2.61 1.17c11.1 5.6 24.07 15.41 29.39 26.83-7.2-.8-14.26-2.12-21.37-3.44A378 378 0 0 0 170 216l-9-1 1.91.63c6.9 2.37 13.33 5.39 19.8 8.71a137 137 0 0 0 7.98 3.72c4.43 1.92 8.62 4.22 12.83 6.57q3.2 1.77 6.48 3.37v2q-3.37.99-6.75 1.94l-3.8 1.09c-19.9 4.85-45.6 4-65.45-1.03l-2.37-.59C114.37 237.02 97.89 230.34 84 219l-2.9-2.22c-5.5-4.3-10.6-8.63-14.1-14.78v-2c6.55-4.94 14.28-8.37 22-11l2.06-.7c32.05-10.36 70.7-6.08 100.94 7.7"/><path fill="#FCFCFD" d="m704 557 2.73 1.66c7.11 4.96 11 11 13.27 19.34 1.61 11.86.17 24.18-7 34-7 8.12-14.55 12.2-25.26 13.21-12.23.8-22.8.14-32.62-7.9-6.8-6.55-10.48-14.36-11.5-23.78-.19-10.65 1.33-21.06 8.32-29.6q1.5-1.5 3.06-2.93l2.69-2.69c12.53-9.62 33.14-9.35 46.31-1.31"/><path fill="#0460B1" d="m789.88 552.69 3.43.01c20.71.3 20.71.3 28.52 7.9 3.7 4.44 2.65 10.96 2.17 16.4-2.14 4.6-4.5 6.75-9 9l3.63 1.5c4.86 2.5 8.14 5.45 10.37 10.5 1.02 6.5.86 11.55-3 17-4.9 5.78-10.7 7.7-18 9-4.66.33-9.29.4-13.97.34q-3.18-.03-6.37-.02c-10.38-.04-10.38-.04-12.66-2.32-.26-2.77-.26-2.77-.27-6.35l-.02-1.97-.01-6.46-.01-4.48v-9.4q0-6.04-.04-12.07-.02-4.64-.01-9.26 0-2.23-.02-4.45v-9.79L775 555c4.65-3.1 9.4-2.34 14.88-2.31"/><path fill="#186CB7" d="m913.88 552.75 3.24-.08c2.88.33 2.88.33 4.58 1.38 1.95 2.93 3.03 6.14 4.17 9.45 2.41 6.66 5.1 13.1 8.13 19.5l2.69 5.81 1.2 2.59c1.2 2.82 2.14 5.68 3.11 8.6q1.19 2.99 2.44 5.94l1.32 3.15q1.47 3.44 3.05 6.85C949 619 949 619 949 624h-10q-1.2-2.2-2.37-4.44l-1.34-2.5C934 614 934 614 932 605h-36l-2 8q-1.23 3.04-2.62 6l-1.36 2.88L889 624h-10c-.7-5.28 1.04-8.56 3.52-13.05 2.11-4.2 3.77-8.57 5.48-12.95l5.09-12.94A75 75 0 0 1 899 573c1.1-2.83 2.07-5.7 3.03-8.57C903 562 903 562 905 560q1.05-3 2-6c1.8-1.8 4.44-1.22 6.88-1.25"/><path fill="#0762B4" d="m704 557 2.73 1.66c7.11 4.96 11 11 13.27 19.34 1.61 11.86.17 24.18-7 34-7 8.12-14.55 12.2-25.26 13.21-12.23.8-22.8.14-32.62-7.9-6.8-6.55-10.48-14.36-11.5-23.78-.19-10.65 1.33-21.06 8.32-29.6q1.5-1.5 3.06-2.93l2.69-2.69c12.53-9.62 33.14-9.35 46.31-1.31m-43 12c-5.3 9.43-6.56 19.48-4.35 30.12 2.26 6.99 5.89 12.39 12.4 16.02 7.65 3.36 16.88 2.48 24.6-.1 6.67-2.93 9.94-7.24 12.62-13.9 2.73-8.04 3.43-18.13.67-26.27-3.52-6.25-8.54-10.67-14.94-13.87q-4.34-.22-8.69-.25l-2.4-.06c-7.78-.05-14.67 2.15-19.91 8.31"/><path fill="#0660B0" d="M489 558c.4 2.71.13 5.24 0 8-4.34-.39-7.5-.77-11.5-2.56-8.01-3.22-19.78-2.67-27.68.6-6.9 3.65-11.1 9.54-13.44 16.91-1.7 9.22.06 17.12 4.3 25.3 4.6 5.46 10.17 8.36 17.18 9.55 7.06.45 14.1-.27 21.14-.8v-19l-11 .18c-2 .02-4-.08-6-.18-2-2-2-2-2.12-4.62L460 589c4.35-2.17 10.22-1.18 15-1.19l3.68-.03 3.5-.01 3.24-.01C488 588 488 588 490 590c.26 2.86.26 2.86.27 6.47v16.06l-.01 3.61C490 619 490 619 488 621c-11.55 4.98-24.96 7.16-37 3l-2.23-.41c-9.37-2-16.2-8.6-21.64-16.2-4.76-8.91-4.2-19.87-2.32-29.58 3-9.62 9.8-16.73 18.53-21.56 13.62-6.42 32.74-6.86 45.66 1.75"/><path fill="#095CAC" d="M1007.03 552.87h4.94c2.03.13 2.03.13 3.03 1.13q.14 2.9.11 5.8v3.77l-.01 4.09v4.17l-.03 10.98-.02 11.2L1015 616l3.01-.02 15.82-.06 6.85-.02 2.18-.01q2.57.01 5.14.11l1 1a179 179 0 0 1-1 7 4241 4241 0 0 1-23.9.15q-4.35.04-8.72.05l-2.75.03h-2.55l-2.24.01C1006 624 1006 624 1004 622c-.25-2.82-.25-2.82-.24-6.45v-8.58l.01-4.56.02-9.56q.03-6.13.02-12.27a4218 4218 0 0 1 .04-20.26l.02-3.63c.18-3.63.18-3.63 3.16-3.82"/><path fill="#045EAF" d="M553.03 552.87h4.94C560 553 560 553 561 554q.14 2.9.11 5.8v3.77l-.01 4.09v4.17l-.03 10.98-.02 11.2L561 616h33v8a4241 4241 0 0 1-23.9.15q-4.35.04-8.72.05l-2.75.03h-2.55l-2.24.01C552 624 552 624 550 622c-.25-2.82-.25-2.82-.24-6.45v-8.58l.01-4.56.02-9.56q.03-6.13.02-12.27a4218 4218 0 0 1 .04-20.26l.02-3.63c.18-3.63.18-3.63 3.16-3.82"/><path fill="#FCF71D" d="M441.88 168.88h31.49l17.48.01 25.28.02a80096 80096 0 0 1 83.34.04h12.31L714 169v50h-16v-2h13v-45l-6 1q-2.51.13-5.02.13h-6.11l-3.41.01h-11.32l-8.11.02-35.8.01-45.48.02h-4.95l-39.81.02a37120 37120 0 0 1-63.82.03 7945 7945 0 0 1-29.5.01h-10.79l-3.2.01-2.91-.01h-2.52c-2.47-.27-4.1-1.01-6.25-2.25l2.8-.18 3.64-.26 3.62-.24c2.84-.3 3.27-1.28 5.82-1.44"/><path fill="#0662B3" d="M802 584h10l1 4 3.69.19c4.52.56 6.41 2.25 9.31 5.81l1.61 1.8c1.8 2.85 1.79 4.79 1.76 8.14l.03 3.09c-.74 5.52-3.95 9.16-8.2 12.52-7.96 5.25-17.98 4.9-27.17 4.79q-3.18-.03-6.37-.02c-10.38-.04-10.38-.04-12.66-2.32-.24-2.6-.24-2.6-.23-5.85v-3.52l.04-3.7v-3.7c.05-9.09.05-9.09 1.19-10.23 2.67-.14 5.32-.04 8 0v1h-7l1 5 1-1h6v16a1907 1907 0 0 0 13.74-.47l2.96-.12 2.71-.1a20 20 0 0 0 9.84-3.93c2.4-3.26 2.86-6.43 2.75-10.38-1-3.37-1-3.37-2-6l1-2c-5.98-2.67-11.97-2.22-18.37-2.12l-3.4.02-8.23.1v-1l18-1z"/><path fill="#FDF94D" d="M449 644h265v49H445v-1h267v-44c-11.25-1.12-11.25-1.12-16.17-1.11h-3.39l-3.62.01-12.33.02-13.56.03-19.41.03q-25.26.04-50.5.05h-2.54a8376 8376 0 0 1-114.1-.68l-11.92-.14-3.81-.05c-3.94-.17-7.75-.62-11.65-1.16z"/><path fill="#0463B7" d="m913.88 552.75 3.24-.08c2.88.33 2.88.33 4.58 1.36 2 3.03 3.11 6.37 4.3 9.78a95 95 0 0 0 4.66 11.47c1.7 3.47 1.77 5.9 1.34 9.72-1.5 1.94-1.5 1.94-3 3-5.54-1.28-5.54-1.28-7.57-4.47l-1.12-3.03-1.2-3.23c-1.49-4.4-2.9-8.8-4.11-13.27h-2l-1.19 3.69Q907.14 581.63 901 595h-10l-1-2c.84-2.5 1.74-4.88 2.75-7.31l.8-2.02A76 76 0 0 1 899 573c1.1-2.83 2.07-5.7 3.03-8.57C903 562 903 562 905 560q1.05-3 2-6c1.8-1.8 4.44-1.22 6.88-1.25"/><path fill="#FAFCFD" d="m786 592 10.63-.19 3.31-.08c5.43-.05 9.4.12 14.06 3.27 2.32 2.56 3.82 4.46 4.23 7.96-.25 4.92-2.03 7.58-5.56 10.91-3.3 2.24-6.76 2.25-10.65 2.23l-2.56-.01-3.21-.03L786 616z"/><path fill="#F8FAFC" d="m786 561 9.56-.37 2.97-.17c5.8-.11 8.95.87 13.25 4.8 1.94 2.76 1.92 5.33 1.66 8.62-.82 3.94-2.65 6.33-5.44 9.12-4.52 1.35-9.14 1.11-13.81 1.06L786 584z"/><path fill="#045DAE" d="M933 591h2l2 3h2l.85 2.63c1.08 3.17 2.29 6.23 3.59 9.3l1.32 3.16q1.47 3.44 3.05 6.85C949 619 949 619 949 624h-10a491 491 0 0 1-3.61-6.93c-1.77-3.9-3.04-8.01-4.39-12.07l-34-1v-1l6-1-3-3c5.79-1.25 11.49-1.11 17.38-1.06L928 598l1-2 3-2z"/><path fill="#035CAF" d="M1007 555h8v59l-2-2c-2.62.38-2.62.38-5 1v2h-2l-.08-32.42-.02-11.82-.01-3.73v-3.46l-.01-3.05c.12-2.52.12-2.52 1.12-5.52"/><path fill="#F3F7FA" d="M913 564h2a5296 5296 0 0 1 9.42 22.35l1.08 2.59.9 2.15c.6 1.91.6 1.91.6 5.91h-27c3.37-10.1 3.37-10.1 5.38-14.81l1.28-3.04L908 576l2.81-6.75z"/><path fill="#D9E8F3" d="m852 298 26.94-.06 8.45-.03h6.7l3.46-.02c6.24 0 12.27.28 18.45 1.11v2l2 1-2.46-.1-15.53-.54c-14.69-.5-29.28-.36-44.01-.36l-1 67c28.25-.12 28.25-.12 37.16-.18l6.98-.01 3.67-.04h3.5l3.05-.01C912 368 912 368 916 370h-64z"/><path fill="#045EAE" d="M785 561h1v23c7.81-.12 7.81-.12 10.26-.18 3.8-.03 5.5.02 8.74 2.18v4l1.86.11 2.45.2 2.43.18c2.62.6 3.57 1.47 5.26 3.51l-3 2-2.29-1.46c-4.75-2.37-9.88-2.1-15.09-2.23L786 592v24h-1v-16l-8 2v-6h-2v-13l7-1v-4l2-1c.63-3.06.63-3.06 1-6l-2.25 1c-2.75 1-2.75 1-6.75 1v-6l8-1z"/><path fill="#1D6EB4" d="M848 417h5v78h-2v3l-3-1z"/><path fill="#FBFCF9" d="M243 151h1l-1 48-2-4h-5l-1-2-5 2v2h2v2l3 1-1 3h-2v6l-5 1c1.92-20.76 8.22-39.75 16-59"/><path fill="#0559AC" d="M560 555h1v61h33v8h-42v-2h3v-2l2-1 1-3h2z"/><path fill="#FDFDE1" d="M455 166v1l259 1v1h-1.76l-115.25.37-2.48.01-39.85.13-66.08.2-27.26.1-10.8.03h-3.22l-2.9.02h-2.52C440 170 440 170 439 171a73 73 0 0 1-4.47.32l-2.73.12-2.86.12-9.94.44v-3a33 33 0 0 1 8.23-1.53l3.13-.27 3.26-.26 3.2-.28c6.09-.5 12.08-.76 18.18-.66"/><path fill="#F1F6FA" d="M836.12 249.85h3q4.92-.03 9.82-.02h6.87l14.38-.02q9.18 0 18.34-.03l20.94-.02c11.69-.04 23.01.02 34.53 2.24v1c-12.98 1.07-25.86 1.07-38.87.91l-20.08-.2a9110 9110 0 0 0-30.76-.32l-6.39-.07-11.55-.12c-5.83-.08-11.56-.54-17.35-1.2v-1c5.74-.98 11.3-1.15 17.12-1.15"/><path fill="#1768B2" d="M462 595h18v21l-2 1a33 33 0 0 0 6 5c-10.21 4.77-22.37 5.67-33 2l-7.96-2.22C441 621 441 621 440 619l6-1v2l3-1 1-5 1.77.47c9.27 2.1 17.81 1.24 27.23.53v-19h-17z"/><path fill="#166AB7" d="m553.07 552.9 5 .06 1.93.04c1.36 2.72 1.08 4.79 1.02 7.83l-.06 3.7-.08 4-.07 4.1-.2 10.78q-.12 5.5-.2 11L560 616h-2l-1 4h-2v2c-1.94.56-1.94.56-4 1-1.85-1.85-1.13-4.87-1.13-7.34V556.7c.18-3.65.18-3.65 3.2-3.8M551 554v63c5-2 5-2 6.3-5 1.01-4.6.95-9.2.9-13.87l-.01-2.8-.06-8.77-.03-5.97q-.03-7.3-.1-14.59l-2 1-1-5h-3v-6h7v-2z"/><path fill="#DCE9F4" d="M561 554h5v59h6v1l22 1v1h-33z"/><path fill="#89C628" d="m229 187 2 1-2.08 11.69-1.05 5.92-.68 3.78-.62 3.47A408 408 0 0 1 225 221c-2.6-2.27-3.6-4.12-4.57-7.42l-.78-2.61-.78-2.72-.8-2.67A85 85 0 0 1 215 191l2.05-.11 5.37-.38c2.9-.57 4.37-1.59 6.58-3.51"/><path fill="#8EC635" d="M245 150h1l-.03 1.86-.03 2.45-.04 2.43c.1 2.26.1 2.26 1.1 5.26.02 2 .02 2-.12 4.23l-.15 2.43-.17 2.53-.16 2.56q-.19 3.13-.4 6.25l3 1-.94 1.81C247 185 247 185 246 188l4-2v6l-2 1-1-2-1 3h5c.2 4.82-.24 8.5-2 13h-2l-1 8 2 1-1 6h-1l-.94-5.31-.53-3c-1.47-10.22-1.72-20.35-1.72-30.67l-.03-7.35c-.03-8.75.34-17.07 2.22-25.67"/><path fill="#146ABA" d="m1007.07 552.9 5 .06 1.93.04c1.42 2.85 1 5.15.88 8.32l-.15 3.8-.17 4-.16 4.02-.4 9.86h-1l-1-27-5-1-1 60h2v-2l6-2 1 8h-5v2l-5 2c-1.85-1.85-1.13-4.87-1.13-7.34V556.7c.18-3.65.18-3.65 3.2-3.8"/><path fill="#0D67B9" d="M895 604c.45 5.35-.4 8.45-2.98 13.13A52 52 0 0 0 889 624h-10c-.72-5.48 1.26-8.97 3.8-13.63 1.2-2.37 1.2-2.37 1.74-4.61L885 604c3.28-1.64 6.42-.52 10 0"/><path fill="#0357A6" d="M940 600c2.92 3.45 4.54 7.28 6.19 11.44l.82 1.98A24 24 0 0 1 949 624h-10c-3.09-5.66-5.58-10.5-6-17l2.94-1.81C939 603 939 603 940 600"/><path fill="#1F6FB8" d="M489 558c.4 2.71.13 5.24 0 8a52 52 0 0 1-16-4l1-2h4l-3-2 1-2-7 1 4 3-8-1 1-4-13-1-1 2-2-2c11.72-4.47 28.45-3.03 39 4"/><path fill="#035AAB" d="M802 584h10l1 4 3.69.19c3.48.43 4.41.89 7.37 3.12L826 594l-1 4-8 2c-1.06-2.37-1.06-2.37-2-5l1-2c-5.98-2.67-11.97-2.22-18.37-2.12l-3.4.02-8.23.1v-1l18-1z"/><path fill="#F3F8FB" d="m1022 312 1 3h4v37c-3 1-3 1-6 1l.5-2.86c.67-4.8.65-9.56.63-14.39v-2.81a141 141 0 0 0-1-17.08c-.13-1.86-.13-1.86.87-3.86"/><path fill="#F5F8FB" d="M896 605h36l1 4-3-1c-3.68-.23-7.37-.18-11.06-.19l-3.09-.03-2.95-.01-2.7-.01c-2.2.24-2.2.24-4.2 2.24-2.65.57-5.3.74-8 1v5h-2v3l-5 2-1-2c.7-1.73.7-1.73 1.81-3.75 1.89-3.46 2.9-6.36 4.19-10.25"/><path fill="#F0F6FA" d="m610 425 5 1c-.72 4.52-2.25 8.68-3.87 12.94l-.78 2.09A108 108 0 0 1 605 453c-2.38-2.38-3-4.34-4.12-7.5l-1.08-2.97C599 440 599 440 599 438h2l1-3h2l1 5h3l-1-6 2-1c.41-1.85.41-1.85.63-4.06z"/><path fill="#F0F7E5" d="M216 198c3.43 6.33 5.32 13.04 7 20l1 2 2-4v6h2v2h-2v3c-3.05.98-4.95.98-8 0l-1-4h6l-1.5-1.87C220 219 220 219 220 217l-3-1q-2.05-2.46-4-5a281 281 0 0 0-5-5l2.31-.06c2.69-.94 2.69-.94 4.5-4.5z"/><path fill="#F7F614" d="M668 645h46v47h-2v-44a242 242 0 0 0-18.41-1.32l-2.25-.06-6.97-.18-4.77-.13L668 646z"/><path fill="#D3E4F2" d="m772 554 3 1 .4 26.05.17 12.1.18 11.67.07 4.45.09 6.24.05 3.59q.04 2.94.04 5.9l-3-2c-.4-2.86-.4-2.86-.43-6.56l-.03-2.04-.05-6.69-.06-4.63-.1-12.2-.12-12.45q-.13-12.21-.21-24.43"/><path fill="#0C63B1" d="M560 500h3v4l7 2v2h2v3h4v2h2v3l3.19.38c3.32.54 5.72 1.39 8.81 2.62q3.5.58 7 1v2h17v1c-18.52.5-33.4-.25-47.56-13.37-6.44-6.94-6.44-6.94-6.44-9.63"/><path fill="#0365BB" d="M712 564a25.6 25.6 0 0 1 8.22 16.08c.2 4.65.04 9.27-.22 13.92h-1l-1-18-7 1v2c-1.83-.18-1.83-.18-4-1-1.48-2.28-1.48-2.28-2.75-5.06l-1.3-2.79L702 568l5 2v-2l5-2z"/><path fill="#F3F8EB" d="M158 214q6 .46 12 1l2 .18c12.5 1.16 24.7 3.3 37 5.82-1.81 1.06-1.81 1.06-4 2l-3-1q-3.6-.33-7.19-.56l-3.85-.26L188 221l-1-3-4 2v2l2 2c-2 1-2 1-3.77.41l-2.12-1-2.34-1.07-2.46-1.15c-5.38-2.52-10.54-4.73-16.31-6.19z"/><path fill="#196DB6" d="M1018 304c5.36 9.15 5.28 22.08 5.31 32.38l.02 2.75c-.07 6.48-.07 6.48-2.33 9.87-1.67-3.33-1.68-7.08-2.06-10.75l-.28-2.58a159 159 0 0 1-.66-18.77c0-2.45-.16-4.68-.56-7.09-.44-2.81-.44-2.81.56-5.81"/><path fill="#0159A9" d="M487 591h1v7l-7 1v16h7q.57 2.5 1 5c-1 1-1 1-4.31 1.31C481 621 481 621 478.56 619l-1.56-2 3-1v-21h-18v-1l24-1z"/><path fill="#F5F9FC" d="M438 575c2 3 2 3 2 6a397 397 0 0 0 .36 6.66l.14 2.53.14 2.56.36 6.25 2 1-.56 1.75A9.7 9.7 0 0 0 443 608l2 1h-3c-1.57-2.01-1.57-2.01-3.12-4.69l-1.57-2.63c-3.09-6.32-3.46-14.4-1.64-21.17q1.07-2.8 2.33-5.51"/><path fill="#025FAF" d="m459.75 553.88 3.55.05 2.7.07 1 2-1 2h2l1-2h7v2c1.5 1.63 1.5 1.63 3 3q-5.66.13-11.31.19l-3.25.07-3.12.03-2.87.05c-2.9-.4-3.61-1.14-5.45-3.34-2.19-1.19-2.19-1.19-4-2 3.6-2.26 6.57-2.2 10.75-2.12"/><path fill="#8FC83B" d="M296 103h1c1.15 6.44 1.18 12.78 1.19 19.31l.04 3.27c0 6.71-.62 12.9-2.23 19.42h-1c-1.01-4.2-1.16-8.27-1.17-12.57v-2.17l-.01-4.52q-.01-3.45-.05-6.9l-.02-6.48c.01-3.63.27-6.28 2.25-9.36"/><path fill="#EDF4F9" d="M713 346c2 2 2 2 2.08 4.28l-.27 2.66-.23 2.65c-.66 2.74-1.58 3.53-3.58 5.41l.06 2.81c-.08 4.2-1.3 6.07-4.06 9.19-2.75.38-2.75.38-5 0 .7-4.36 2.16-8.3 3.81-12.37l.75-1.93A90 90 0 0 1 713 346"/><path fill="#E7F0F7" d="M707 578h1c.7 22.59.7 22.59-7 32a28 28 0 0 1-7 5c-2.94-.19-2.94-.19-5-1v-2l8-2 1-5h4l-1-6 2-1c1.41-4.23 1.38-8.43 1.62-12.87.35-2.9.88-4.66 2.38-7.13"/><path fill="#1168B7" d="m507 249 2 2-1.79.14q-4.01.31-8.02.67l-2.82.22-2.7.24-2.5.2c-2.57.63-3.39 1.63-5.17 3.53-2.69.19-2.69.19-5 0v2h-2l-.31 1.81c-.81 2.58-1.45 3.67-3.69 5.19-2.69-.31-2.69-.31-5-1 2.83-6.32 7.77-9.7 14.06-12.31 7.5-2.71 14.99-3.4 22.94-2.69"/><path fill="#0F68B8" d="m467.88 587.9 3.54.01 3.7.03 3.74.01 9.14.05v1l-8 1 3 3-3.29.18-4.34.26-2.16.12c-3.28.2-6.42.48-9.67 1.04l-2.54.4c-1-1-1-1-1.06-3.56L460 589c2.71-1.36 4.85-1.11 7.88-1.1"/><path fill="#075BAA" d="M707 559c2.93 1.82 4.63 2.97 5.81 6.25L713 567l-6 1v2c-5.2-1.36-8.1-3.47-12-7 3.54-3.88 6.82-4.52 12-4"/><path fill="#0264BB" d="M940 600c2.47 2.96 3.66 5.54 4.69 9.25l.76 2.7.55 2.05-4-1v2l-1.81-.62C938 614 938 614 935 616c-1.5-3.37-2-5.2-2-9q2.95-2.08 6-4z"/><path fill="#015FB4" d="M453 616q4.84-.2 9.69-.31l2.76-.13 2.69-.05 2.46-.08c2.4.57 2.4.57 7.4 5.57h-26c0-3 0-3 1-5"/><path fill="#0264BA" d="m927 572 .44 2.25q.69 3.39 1.56 6.75l3-1-1 7c-2.33.83-3.63 1.1-6.03.4-2.88-2.05-3-4.13-3.72-7.52l-.73-3.33L920 574c3-2 3-2 7-2"/><path fill="#EFF5F9" d="m695 550 1 3-2.01-.08c-26.6-.91-26.6-.91-36.67 7.25C655 562 655 562 653 562v-2h2v-4c13.25-6.55 25.4-6.71 40-6"/><path fill="#0465B8" d="m784 580 1 4h12v3h4v2a234 234 0 0 1-25-1v-4h8z"/><path fill="#F2F7FB" d="m886 592 4 1c-.67 5.13-2.87 9.53-5 14.19l-1.12 2.48c-2.6 5.76-2.6 5.76-3.88 8.33h-2c-1.57-5.8-1.57-5.8-.02-9.07a130 130 0 0 1 2.75-4.07c1.27-1.86 1.27-1.86 2.4-4.8L884 598l3-1z"/><path fill="#0865B7" d="M438 561v2h-2c1.5 3.01 4.03 3.61 7 5l-6 11-2-1q-.6-3.49-1-7h-5c1.32-4.19 4.02-10 9-10"/><path fill="#196BB7" d="M778 553c27.16-.62 27.16-.62 38 3-3.13 2.13-5.18 1.98-8.81 1.32-5.84-.86-11.85-.74-17.74-.93l-3.15-.1-2.87-.1C781 556 781 556 778 555z"/><path fill="#8DC92A" d="M215 213c4.52 3.14 6.51 6.22 9 11l-5.77-.72-5.98-.72A19 19 0 0 1 205 220v-3l10-2z"/><path fill="#ECF3F9" d="m828 592 2 1-1 1 1.95.5c2.05 1.5 2.05 1.5 2.66 5.2q.1 2.21.14 4.42l.09 2.29q.1 2.8.16 5.59l-4 2v2l-4-2 .98-1.63c1.25-2.9 1.32-5.15 1.33-8.3l.05-3.1c-.4-3.34-1.45-5.23-3.36-7.97z"/><path fill="#0D64B2" d="M566 351c2.28 3.43 3.6 6.97 5 10.81l.79 2.12q2.22 6 4.21 12.07l-4 1v-4l-3-1v-7l-3-1v-5l-3-1c-.19-2.37-.19-2.37 0-5z"/><path fill="#0258A9" d="m664.81 555.69 3.2.3L668 558l5 1-2 1-1 3c-1.94.75-1.94.75-4 1l-2-1-1 3c-2.94-.81-2.94-.81-6-2l-1-3c2.93-3.55 4.12-4.93 8.81-5.31"/><path fill="#E5F0F7" d="M913 564h2q1.8 3.93 3.56 7.88l1.04 2.26q1.28 2.9 2.4 5.86l-1 2c-2-1-2-1-4-4-2.16-.3-2.16-.3-4.62-.19l-2.48.09-1.9.1a182 182 0 0 1 5-14"/><path fill="#FDF71A" d="m378 631 8.59 2.14q3.18.8 6.35 1.62A401 401 0 0 0 417 640v1c-5.35 1-9.62.85-15 0v-2l-1.8.03c-4.2.05-8.1.03-12.2-1.03v-2l-10-2z"/><path fill="#E8F2F8" d="M695 386c2 2 2 2 2 6l-2 1 1 3q.06 2.5 0 5l-2 1-2-1 1 6c-4.75 3-4.75 3-7 3 2.2-8.37 5.5-16.12 9-24"/><path fill="#0C60B6" d="M786 439h1l1 60 4 1c.2 3.68-.25 5.78-2 9-4.67-7.34-4.52-13.8-4.4-22.34l.03-4.14q.02-5.4.1-10.81.05-5.53.07-11.06.08-10.83.2-21.65"/><path fill="#E6EEF7" d="M950 323c3.44 3.44 3.16 7.17 3.19 11.88-.03 4.42-.37 8.02-2.19 12.12l-1-3h-2v-19h2z"/><path fill="#E7F3D4" d="M247 225c2 3 2 3 2 5h2v2l2 1 1 3 2 2c.13 2.63.13 2.63 0 5q-2.49.57-5 1c-1-1-1-1-2-8l-1 19h-1z"/><path fill="#F6FAF0" d="m247 58 2 1c-1.25 3.76-3.09 5.36-6 8l-2.19 1c-2.59 1.43-2.82 3.28-3.81 6q-1.47 1.53-3 3a250 250 0 0 0-4 6l-2-4 4-1 .44-3.31C233 71 233 71 234 68h3v-2a370 370 0 0 1 6-4 88 88 0 0 0 4-4"/><path fill="#FDF618" d="M177 379h1c1 5.98.95 10.16-1 16q-.77 3.87-1.44 7.77C175 405 175 405 173 408c-1.55-1.55-1.2-2.96-1.25-5.12.07-7.67.95-17.43 5.25-23.88"/><path fill="#FBFCFD" d="M919 577c.22 3.86-.4 6.5-2 10l-7-2v-2h-3v-5c3.98-1.33 7.85-1.07 12-1"/><path fill="#025CAC" d="m681.16 552.9 3.9.04 3.91.02 3.03.04v5c-4.86 2.6-9.65 2.19-15 2v-2h4v-3l-4-1c1-1 1-1 4.16-1.1"/><path fill="#FEFDE7" d="M365 238c-1 3-1 3-2.58 4.04l-2.03.93-2.23 1.04-2.35 1.05-2.29 1.07c-11.47 5.26-11.47 5.26-14.9 4L337 249c21.6-11 21.6-11 28-11"/><path fill="#8EC736" d="m203 235 1.81.94A29 29 0 0 0 210 238v2a860 860 0 0 1-9.05 2.58A40 40 0 0 1 188 244v-2h2l1-3h12z"/><path fill="#397FC0" d="M462 595h18v21l-2 1a33 33 0 0 0 6 5c-3.5 1.6-6.14 2.22-10 2l1.06-1.81C476 620 476 620 475 617l-2-1 6-1v-19h-17z"/><path fill="#0C66B8" d="m703 605 2 1v2h4v2h5l-6 7-3-1v-2c-1.69-1.12-1.69-1.12-4-2-2.75.88-2.75.88-5 2l2.38-2.25c2.19-2.3 3.45-3.87 4.62-6.75"/><path fill="#F8FAFC" d="M776 551a2301 2301 0 0 1 17.95-.15l6.56-.05 3.99-.03c3.31.22 5.53.79 8.5 2.23l-2 2q-2.73-.29-5.44-.7c-5.32-.62-10.7-.4-16.06-.36l-3.65.01-8.85.05z"/><path fill="#F3F8FB" d="M814 596c2.61 1.93 3.04 3.16 3.88 6.38.17 5.15-1.67 7.13-4.82 11-2.06 1.62-2.06 1.62-4.31 1.37L807 614l1-2h2v-2h3l-.29-2.3-.69-6C812 599 812 599 814 596"/><path fill="#0462B8" d="m1037.75 616.88 3.55.05 2.7.07v4c-6.97 1.33-13.93 1.09-21 1 5.1-4.01 8.15-5.26 14.75-5.12"/><path fill="#E6EFF7" d="M449 609v2c6.69 1.73 13.06 2.36 19.96 2.66C472 614 472 614 475 616c-9 1.1-17.5 1.65-26-2-2.34-2.11-2.34-2.11-4-4 2-1 2-1 4-1"/><path fill="#0C64B6" d="m902 565 1 4h6l1-3h2c-.48 4.22-1.17 6.8-4 10v-2l-10 2c2.88-8.75 2.88-8.75 4-11"/><path fill="#0562B8" d="m593 616 1 2h-5v3h-17v-4z"/><path fill="#035CAA" d="M781 601h3v11l-3.37.44C777 613 777 613 775 614v-8l2 1c2.25-2.05 3-3 4-6"/><path fill="#FDFDF1" d="M168 419h2l1.56 24.32.26 3.95q.24 5.36.18 10.73h-1c-1.87-4.56-2.16-8.3-1.97-13.14C169 443 169 443 168 442q-.12-2.56-.1-5.13l.01-3.13.03-3.3.01-3.31z"/><path fill="#F0F6FB" d="M683 414c3.95 2.72 3.95 2.72 4.44 5.25-.58 3.62-1.88 6.44-3.44 9.75h-6a47 47 0 0 1 3.06-10.31l1.1-2.68z"/><path fill="#035BAB" d="m651 593 5 1c-.46 3.47-.9 6.67-2 10h-2v2l-5-1c.66-4.39 2.19-7.98 4-12"/><path fill="#F2F6FB" d="m640 583 4 1 1 15-6 3z"/><path fill="#90C736" d="M249 197c1.13 1.63 1.13 1.63 2 4-.87 3.25-.87 3.25-2 6h-2l-1 8 2 1-1 6h-1c-3.14-16.32-3.14-16.32-2-22 2.5-2.12 2.5-2.12 5-3"/><path fill="#0860B2" d="M1010 288c4.44 4.6 6.04 10.05 8 16h-6c-1.2-3.88-2-6.92-2-11l-3-1 2-1z"/><path fill="#2370B5" d="M578 516c4.37.51 7.94 1.38 12 3q3.5.58 7 1v2h17v1c-27.94.76-27.94.76-34.28-5.1z"/><path fill="#DCE9F5" d="M1253 403h1a163 163 0 0 1 2.19 29.56v4.02c-.05 10.56-.05 10.56-1.19 15.42h-1l1-31h-2c-.73-6.21-1.23-11.84 0-18"/><path fill="#DFEBF5" d="m945 253 9.4.56c3.07.19 5.67.46 8.6 1.44v2l9 1 1 3a252 252 0 0 1-16.19-3.56A94 94 0 0 0 944 255z"/><path fill="#F1F8E8" d="M243 151h1v11h-2v9l-6 1a139 139 0 0 1 7-21"/><path fill="#2077C2" d="M785 561h1v23h-1v-13l-5 2h-4v-6l8-1z"/><path fill="#1069B9" d="m655 561 2 1v2l6 1 1-2 3 1-2.87 3.38-1.62 1.9A76 76 0 0 1 659 573v-3l-4-1v-2l-4-1z"/><path fill="#FEF829" d="M222 445h1l.59 3.84.78 5.1.39 2.51c.76 4.93 1.7 9.73 2.96 14.54.32 2.28-.03 3.84-.72 6.01l-2-3h-1l-.15-2.23-.22-2.96-.22-2.92c-.41-2.89-.41-2.89-1.47-5.33-1.22-3.33-.92-5.86-.56-9.37l.33-3.52z"/><path fill="#015EB1" d="m666 613 2 1v2l-4 2 1 2h3v2l9-1v2l-2 2c-6.28-.26-13.08-2.3-17.77-6.63L656 617c3.62-1.32 6.1-2 10-2z"/><path fill="#0961B1" d="M633 376c4 4 4 4 4.5 6.25-.72 3.98-2.55 7.24-4.5 10.75l-5-1z"/><path fill="#1269B8" d="m654 320 1 4h3c-.74 4.08-1.83 8.02-3 12l-1-4h-2l-.87 3.44L650 339l-2 1c.5-7.15 3.32-13.41 6-20"/><path fill="#F2F7FB" d="m669 276 2 1-7 20-4-2v-2h3v-2l-3 1a17 17 0 0 1 3-7h3l.38-2.25A24 24 0 0 1 669 276"/><path fill="#0861B0" d="M816 611h9c-.55 3.38-1.05 5.08-3 8l-7-1c0-4 0-4 1-7"/><path fill="#1468B5" d="m817 606 2 1v3h9l-2 5-1-4-1.69.56c-2.7.52-4.65.1-7.31-.56l-1 6 5 2-1 2c-3.44.75-3.44.75-7 1l-2-2 5 1-2-5h-2a22 22 0 0 1 5-7z"/><path fill="#F1F6FA" d="m901 556 4 1a52 52 0 0 1-3.37 11.25l-1.28 3.2C899 574 899 574 896 575c-1.15-3.55-1.09-4.8.44-8.31L898 564h3z"/><path fill="#0760AF" d="M971 407v1c-14.03 4.79-14.03 4.79-21 4l-2-2c2.74-2.74 5.56-2.73 9.25-3.19l3.95-.54c3.53-.25 6.37-.02 9.8.73"/><path fill="#F3F7FB" d="M627 393a119 119 0 0 1-6 20 22 22 0 0 1-1-6l-2-1 1-5h3l-.19-2.87.19-3.13c3-2 3-2 5-2"/><path fill="#ECF3F9" d="m533 262 4 2v2l3 1 1 3-1 1 3 1v5h-3l-1 3-.77-1.94q-2.99-7.57-6.23-15.06z"/><path fill="#FBFCFD" d="M664 610c5.17-.3 7.7.2 12 3q3.5 1.02 7 2l3 2c-7.4.3-14.16.49-20-4.62z"/><path fill="#F1F6FA" d="m621 521-1 3c-3.53.8-6.8 1.13-10.41 1.13h-15.22C592 525 592 525 589 524v-2a1719 1719 0 0 0 12.25.06l3.51.03 6.5.02c3.37-.14 6.36-1.11 9.74-1.11"/><path fill="#EBF3F9" d="M701 373c2 1.65 2.95 2.86 3.88 5.31.16 3.57-1.11 5.65-2.88 8.69l-6-1 1.38-4.25.77-2.4c.8-2.22 1.75-4.26 2.85-6.35"/><path fill="#0359A9" d="M887 603c2.7.18 5.33.62 8 1v6c-5.62 2.13-5.62 2.13-9 1a197 197 0 0 1 0-7z"/><path fill="#FEFDEB" d="m394 229-6 1-1 3-5-1-1 3c-5.13 2.87-8.11 3.32-14 2 4.18-3.38 8.43-4.67 13.5-6.25l2.59-.85 2.5-.8 2.28-.71c2.37-.43 3.86-.14 6.13.61"/><path fill="#035BAD" d="M437 614h13c1 3 1 3 .06 5.19L449 621l-3-1v-2l-3.37.56C439 619 439 619 437 618z"/><path fill="#196AB5" d="m812 576 1 4 2.38-.19 2.62.19 2 3-5 3 1 2h-3l-1-4h-9v-1l2.81-.69c3.7-1.52 4.52-2.77 6.19-6.31"/><path fill="#E4EFF7" d="M580 373c.85 3.38 1.1 5.68 0 9h4c.75 2.25.75 2.25 1 5-1.94 2.31-1.94 2.31-4 4-3.2-5.4-4.07-10.84-5-17 2-1 2-1 4-1"/><path fill="#146AB4" d="M739 267c2.35 3.53 2.21 5.03 2.13 9.19l-.06 3.29L741 282c-1.94.56-1.94.56-4 1-1-1-1-1-1.1-3.72l.04-3.34.02-3.35.04-2.59h3z"/><path fill="#055AAB" d="m908 574-1 5h-2l-1 3h-6v-6c3.62-1.32 6.1-2 10-2"/><path fill="#0759A8" d="M489 558v8l-3.87-.31-2.19-.18C481 565 481 565 479 562c2.84-4.26 5.19-4.13 10-4"/><path fill="#0460B1" d="M479 313h5v5l3 1 1 5-4 3-2-7h-2z"/><path fill="#2477C0" d="M785 592h1v24h-1v-16l-8 2v-6h7z"/><path fill="#FEFDED" d="m252 328 1 2h2v3h-2v5c-3 1-3 1-4 1v2h-2v2l2 1-5-1a58 58 0 0 1 5.13-10.31l1.63-2.68z"/><path fill="#0364B8" d="m424 590 7 1v2l5 1-1 4c-4 0-4 0-7-1v-2h-3l-1 4z"/><path fill="#025CAE" d="M920 554v5h2l-1 6c-3.75 1.13-3.75 1.13-6 0v-2l-2-1 5-1v-5h-9v-1a42 42 0 0 1 11-1"/><path fill="#EBF3F9" d="M545 470c2.64 3.2 4.14 6.42 5.69 10.25l1.32 3.27.99 2.48-2 1v-2l-5-1-1-5h2l-1-2-3-1v-4h2zm3 12 1 2Z"/><path fill="#1266B6" d="m824.38 253.88 2.8.02 6.82.1v1l-1.84.15c-4.45.4-8.78.92-13.16 1.85a117 117 0 0 1-15 2c6.25-5.29 12.57-5.27 20.38-5.12"/><path fill="#075AA5" d="m677 621 4.75-.06 2.67-.04c2.36.1 4.33.43 6.58 1.1l-1 3q-3.66.08-7.31.13l-2.1.05c-3.76.03-5.37-.04-8.59-2.18h5z"/><path fill="#0F68B8" d="M476 554q2.44.42 4.88.88l2.74.49C486 556 486 556 488 558l-7 2v2c-2.6.93-3.64 1.15-6.25.06L473 561l5-1-3-2z"/><path fill="#F1F7FA" d="M553 488c2.83 3.37 4.27 6.97 6 11q1.47 2.02 3 4v2h-6q-.55-1.94-1.06-3.87l-.6-2.19C554 497 554 497 555 495h-3z"/><path fill="#2573BC" d="m507 249 2 2-1.77.14q-3.99.31-7.98.67l-2.79.22-2.7.24-2.47.2c-2.7.62-4.2 1.75-6.29 3.53l-4-3c8.65-3.43 16.64-4.83 26-4"/><path fill="#FEFEED" d="m332 193 1 2 2 1c-3.85 2.45-7.8 4.2-12 6l-2.81 1.69C318 205 318 205 316 205l1-3h2v-2h3v-2z"/><path fill="#055DAA" d="M701 611c2 1.38 2 1.38 4 3v2l2 1c-1.12 1.5-1.12 1.5-3 3-3.19.19-3.19.19-6 0v-3l-3-1v-2z"/><path fill="#0563B9" d="M703 556a25 25 0 0 1 3 3q-2.65.84-5.31 1.63l-3 .9C695 562 695 562 692 560c.31-1.94.31-1.94 1-4 3.77-1.26 6.14-.83 10 0"/><path fill="#F0F6FA" d="M633 377c-.99 4.84-1.96 9.48-4 14l-4-1c.6-4.19 1.36-8.09 3-12 3-1 3-1 5-1"/><path fill="#FEFEEE" d="M171 380h5l-3 17h-1c-2.23-5.3-2.46-10.33-2-16z"/><path fill="#065CAD" d="M663.19 609.63c1.8 1.37 1.8 1.37 2.56 3.5L666 615c-6.29 2.43-6.29 2.43-10 1l1-2-3-1c6.3-4.2 6.3-4.2 9.19-3.37"/><path fill="#FEFDF4" d="M188 524h2l2.5 4.81 1.4 2.71C195 534 195 534 195 537h-5v-5h-2c-.8-3.29-1.1-4.71 0-8"/><path fill="#1065B3" d="M944 412v2c-8.08 1.81-15.73 2.24-24 2l2-3c2.72-.51 2.72-.51 6.06-.69l3.52-.2q6.21-.2 12.42-.11"/><path fill="#0C65B5" d="M639 360c2.38 3.56 1.88 4.99 1.22 9.07-.25 2.19.21 3.82.78 5.93l-2 2c-2.62-.37-2.62-.37-5-1l.59-1.72q2.4-7.08 4.41-14.28"/><path fill="#1C6CB8" d="M897 577h1v5c2.94-.37 2.94-.37 6-1l1-2h2c-.75 4.75-.75 4.75-3 7v-2l-8 1-1 3h-2l2.25-7.72C896 578 896 578 897 577"/><path fill="#0D67B8" d="M447.81 555.25c4.2 1.44 6.72 3.05 9.19 6.75-4.69 1.12-7.54.8-12-1l1-4-2-1c2-1 2-1 3.81-.75"/><path fill="#2774B9" d="M808 518h2v3l2-1q2.97-.14 5.94-.12l3.21-.01C824 520 824 520 827 521v2q-4.15.16-8.31.25l-2.38.1c-2.18.04-4.17.03-6.31-.35-2.04-2.02-2.04-2.02-3-4z"/><path fill="#FEF616" d="M221 407c2.48 3.73 2.16 5.43 1.98 9.86l-.08 2q-.12 3.17-.28 6.33l-.17 4.3L222 440h-1l-.18-3.46-.26-4.48-.12-2.29c-.33-5.66-.33-5.66-1.44-6.77q.1-2.62.38-5.25l.27-2.9c.32-2.65.79-5.23 1.35-7.85"/><path fill="#186AB8" d="m910.82 552.8 3.3.07 3.33.06 2.55.07v1l-10 2v5l-1.94.37-2.06.63-1 2h-2a527 527 0 0 1 2.15-6.84c1.29-3.28 2.1-4.1 5.67-4.36"/><path fill="#ECF3F9" d="m691 250 3 1c-2.24 1.72-4.5 3.33-6.87 4.88A102 102 0 0 0 678 263c-1-3-1-3-.12-5.44 3.05-3.68 6.74-4.86 11.12-6.56z"/><path fill="#8FCB3A" d="M248 232c1.96 3.91 2.44 6.73 3 11l1 1c.31 2.81.31 2.81 0 6l-4 4z"/><path fill="#FEFDE8" d="m447.56 219.81 3.27-.03 5.91-.02C459 220 459 220 461 222l-21-1v2c-5.45.1-10.64.13-16-1v-1c7.87-.85 15.65-1.18 23.56-1.19"/><path fill="#176EBA" d="M940 600c2.47 2.96 3.66 5.54 4.69 9.25l.76 2.7.55 2.05c-1.94-.31-1.94-.31-4-1l-1-3-2-1v-2l-4-1 1.94-1.31C939 603 939 603 940 600"/><path fill="#075AA9" d="M904 584c-.87 5.88-.87 5.88-2 7-3.2.17-5.93-.09-9-1 1-3 1-3 3-5 2.88-.96 4.87-1 8-1"/><path fill="#EEF4F9" d="M692 562c4.6 1.49 7.44 3.85 11 7l-1 3c-3.09-.34-4.77-.82-7.25-2.75-1.93-2.48-2.4-4.16-2.75-7.25"/><path fill="#FDF720" d="m238 506 10 20-2 1c-3.08-1.54-3.68-4.05-5.12-7.12l-1.64-3.39c-1.33-3.73-1.47-6.56-1.24-10.49"/><path fill="#F4F7FB" d="m655 314 2 1-5 13-3-2c-.19-2.62-.19-2.62 0-5h2v-5c1.88-1.06 1.88-1.06 4-2"/><path fill="#FEFDDD" d="M439 170v1l-20 1v-3c6.66-2.22 13.48-1.27 20 1"/><path fill="#055AAB" d="M706 601c4.85 2.38 4.85 2.38 7 4 .94 2.75.94 2.75 1 5h-5v-2h-4c-.62-1.81-.62-1.81-1-4z"/><path fill="#0264B8" d="M776 554q1.98.42 3.94.88l2.21.49C784 556 784 556 785 558c.13 2.67.04 5.32 0 8l-1-4-4-1v-2l-4-1z"/><path fill="#EAF2F8" d="M509 385c2 1 2 1 2.78 2.96l.72 2.42A25 25 0 0 0 516 398v3h-2l-1-2h-2l-.31-1.94L510 395l-3-1q.87-4.53 2-9"/><path fill="#E8F4D7" d="M196 245c-3.72 2.4-6.83 2.15-11.17 1.98l-2.07-.08q-3.25-.12-6.51-.28l-4.43-.17L161 246v-1l10.5-.5 2.98-.15c15.96-.74 15.96-.74 21.52.65"/><path fill="#FDF71C" d="m434.5 688.19 3.97.29c3.04.45 4.95.92 7.53 2.52-7.6 1.73-15.36 1.36-23 0 3.65-3.6 6.56-3.23 11.5-2.81"/><path fill="#035CAE" d="M708 594h6l1 3h3c-.25 2.38-.25 2.38-1 5-2.06 1.31-2.06 1.31-4 2v-6h-5z"/><path fill="#206DB7" d="m816 592.56 1 1.44-3 2-2.29-1.46c-4.75-2.37-9.88-2.1-15.09-2.23l-3.1-.1q-3.75-.12-7.52-.21v-1q4.75-.3 9.5-.56l2.69-.17c13.9-.77 13.9-.77 17.81 2.3"/><path fill="#FEFDEC" d="m240 350 2 3-1 2 2 1 1-4c.24 4.09-.58 7.18-2 11l-2-3-1.37 2-1.63 2h-2q.67-2.37 1.38-4.75l.77-2.67A40 40 0 0 1 240 350"/><path fill="#FDF61A" d="m238 264 3 2c-2 2-2 2-5 3-.95 1.85-.95 1.85-1.69 4.06l-.76 2.23L233 277h-4c-1.75 2-1.75 2-3 4l-2-1 4.19-5.19 2.35-2.92c2.38-2.8 4.83-5.34 7.46-7.89"/><path fill="#FDF710" d="m277 229 1 2a30 30 0 0 1-5 8c-2.5.38-2.5.38-5 0-2.81 1-2.81 1-5 2 4.36-4.48 8.99-8.29 14-12"/><path fill="#FDF716" d="M305 212c-1.76 5.28-7.05 7.96-11.81 10.5l-2.19.5-3-2 7.38-4.5 2.11-1.3c5.28-3.2 5.28-3.2 7.51-3.2"/><path fill="#ECF2F8" d="M795 611v3l3.19-.06c3.14.05 5.78.32 8.81 1.06v1h-21c5-5 5-5 9-5"/><path fill="#0366BA" d="M907 599h13l-1 4h-13z"/><path fill="#4187C5" d="M712 564a25.6 25.6 0 0 1 8.22 16.08c.2 4.65.04 9.27-.22 13.92h-1l-1-18-4-2 1-4-3-1-2-2 2-1z"/><path fill="#E3EFF7" d="M675 435a14 14 0 0 1 3 3c-.31 2.19-.31 2.19-1 4l-5 1v2l3 1-1 3-5 1c1.64-5.23 3.39-10.15 6-15"/><path fill="#E5EEF6" d="M922 583a27 27 0 0 1 3.63 7.69l.78 2.45.59 1.86h-8l.94-3.19A98 98 0 0 0 922 583"/><path fill="#0358AA" d="m909.19 562.38 2.8.62c.01 3 .01 3-1.11 4.69-2.64 1.84-4.74 1.52-7.88 1.31-.19-2.37-.19-2.37 0-5 3-2 3-2 6.19-1.62"/><path fill="#1166B4" d="m791 509 7 2v3l1.88.25c2.12.75 2.12.75 3.37 2.81L804 519c-4.8 0-7.34-2.4-10.81-5.56C791 511 791 511 791 509"/><path fill="#FDF614" d="m182 358 2 1c.37 7.4.37 7.4-1.44 10.31L181 371l-1 3h-2l-1 3c.6-6.68 2.78-12.7 5-19"/><path fill="#FEFEF7" d="m232 490 1 3 5 1v2h2v6h-2l-1 2-2.5-4.75-1.4-2.67C232 494 232 494 232 490"/><path fill="#FDF614" d="M191 334h1q.2 3.15.31 6.31l.18 3.55c-.49 3.14-.49 3.14-2.89 5.06C187 350 187 350 185 350a211 211 0 0 1 6-16"/><path fill="#1067B5" d="m659 308 4 1a70 70 0 0 1-3 11h-2v-2l-3 1 1.44-4.37.8-2.47C658 310 658 310 659 308"/><path fill="#045CAB" d="m927 572 .44 2.25q.69 3.39 1.56 6.75h-2v-2h-6l-1-5c3-2 3-2 7-2"/><path fill="#0B67B5" d="m710 352-4 12-1-4-2-1c-.62-2.56-.62-2.56-1-5 3-2 3-2 8-2"/><path fill="#EDF4F9" d="M571 348c2 2 2 2 2.25 4.25-.29 3.15-1.15 5.8-2.25 8.75a27 27 0 0 1-3.62-7.69l-.8-2.45L566 349c2.38-.62 2.38-.62 5-1"/><path fill="#0F68B6" d="M537 274c2.52 2.52 3.04 4.74 4.13 8.13l1.07 3.31.8 2.56-6-1-.15-2.12-.23-2.75-.2-2.75C536 277 536 277 534 275z"/><path fill="#FDF719" d="m449 217-1 3-17 1v-3c6.07-.77 11.88-1.1 18-1"/><path fill="#0F67BB" d="m465 615.81 2.23-.03c1.93-.01 3.85.1 5.77.22l2 2c-3.16 1.58-6.54 1.18-10 1.19l-2.23.03c-1.93.01-3.85-.1-5.77-.22l-2-2c3.16-1.58 6.54-1.18 10-1.19"/><path fill="#E8F1F8" d="M673 562v2h-2l-.75 1.94C669 568 669 568 666.88 568.75L665 569v2l-5 2c1.16-4.95 4.13-6.97 8.03-9.86C670 562 670 562 673 562"/><path fill="#F1F6FA" d="M485 335c4.76 3.3 4.76 3.3 5.88 6.56C491 344 491 344 490 347h-3v-4h-2q-.57-3.5-1-7z"/><path fill="#176DBB" d="M551 311a22 22 0 0 1 4.63 9l.72 2.56q.86 3.21 1.65 6.44h-3v-8h-5l-1-3h2z"/><path fill="#D7E5F2" d="M717 249v1h-18l-1-2c6.46-1.32 13.1-2.37 19 1"/><path fill="#1A6DB8" d="M674 269c.93 2.6 1.15 3.64.06 6.25L673 277h2v5l-6 1c.96-5.2 1.88-9.6 5-14"/><path fill="#F5F9EE" d="M198 229c4.88.42 6.71 2.54 10 6l3 1-1 4v-2l-1.67-.34a41 41 0 0 1-7.58-3.22l-2.7-1.38L196 232l2-1z"/><path fill="#E1ECF5" d="m699 554 6.74.68C708 555 708 555 711 556c.75 1.94.75 1.94 1 4l-1 2a90 90 0 0 1-8.25-4.56l-2.14-1.32L699 555z"/><path fill="#0E67B2" d="m642 500 3 1c-1.4 5.3-4.86 7.77-9 11l-1-3h2v-3h3l-1-3z"/><path fill="#FDFDE2" d="M173 471c2.02 3.04 2.32 4.2 2.63 7.69l.22 2.45.15 1.86-1-3-5-1c-1.12-4.75-1.12-4.75 0-7z"/><path fill="#F2F7FB" d="M522 424h4c2.6 2.6 2.63 4.4 3 8l-1 3h-3v-7h-3z"/><path fill="#1267B3" d="m990 394 2 3-4.69 2.88-2.63 1.61A53 53 0 0 1 977 405v-2l-2-1 7-1 1-3 5-1v-2z"/><path fill="#0862B6" d="M440 610c6.75 1.75 6.75 1.75 9 4l-2.34.15-3.04.23-3.02.2c-2.6.42-2.6.42-4.6 2.42l-3-4 7-1z"/><path fill="#F1F6FB" d="M938 590c2.06.44 2.06.44 4 1q1.13 4.47 2 9l-3 2c-2.48-3.72-3.09-6.63-4-11z"/><path fill="#EFF5F9" d="M645 566h3c1.12 3.3.9 5.05-.44 8.25l-.87 2.14L646 578l-4-4 .94-1.75c.99-2.1 1.58-4 2.06-6.25"/><path fill="#196AB5" d="M920 554h2l3.9 9.18C927 566 927 566 927 568c-2.44-.69-2.44-.69-5-2-.87-2.5-.87-2.5-1-5l1-2h-2z"/><path fill="#0262B7" d="m526 257 6 5c-1.25 1.56-1.25 1.56-3 3-2-.25-2-.25-4-1l-3-1v-3h3z"/><path fill="#1968B7" d="M714 250c6.63.36 11.57 2.1 17 6l2 3h-3v-2l-5-1-1-3-3 1v-2l-6 1z"/><path fill="#FBFCE6" d="m258 240 4 1-2.31 2.25C257 246 257 246 255.3 248.31L254 250h-2v-6l6-2z"/><path fill="#EBF4DA" d="M187 218c7.48.49 14.69 1.33 22 3-1.81 1.06-1.81 1.06-4 2l-3-1q-3.6-.33-7.19-.56l-3.85-.26L188 221z"/><path fill="#FDF823" d="M424 172v2c-7.35 1.5-13.58 2.24-21 1v-1c7.1-1.34 13.77-2.24 21-2"/><path fill="#1B6FBA" d="m692 553 6 1-2 2h-3l-1 2zm1.45 6.45L695 561l-1 2-2-1a219 219 0 0 0-9.77-.7L677 561v-1q3.38-.62 6.75-1.19l3.8-.66c3.45-.15 3.45-.15 5.9 1.3"/><path fill="#FEFDEA" d="M226 392h1c1.97 4.93 2.18 8.78 2 14l-3 1-2-1 .68-7.42A44 44 0 0 1 226 392"/><path fill="#E6EFF7" d="M466 283c2.67 4.77 4 9.54 4 15h-3l1-6h-5v-4l2-1c.63-2.06.63-2.06 1-4"/><path fill="#0260B7" d="M703 250v3l2 1c-4.75 1.13-4.75 1.13-7 0v-2l-5 3-3-2c4.62-2.22 7.77-3.38 13-3"/><path fill="#8EC533" d="M214 114h3v10l-3 1-1 2c-1-5.03-.97-8.24 1-13"/><path fill="#0C65B2" d="m654 480 2 1-4 10-4-2v-4h3v-3h3z"/><path fill="#ECF4F9" d="M695 386c2 2 2 2 2 6l-2 1 1 3q.06 2.5 0 5h-3c-1.4-2.78-.7-4.47-.12-7.5l.55-2.97C694 388 694 388 695 386"/><path fill="#FDF513" d="M269 303c-.59 3.63-2.06 5.55-4.5 8.25l-1.9 2.14L261 315h-1c-.51-2.8-.33-4.49 1.23-6.9 4.2-5.1 4.2-5.1 7.77-5.1"/><path fill="#8BC432" d="M117 184v3c-4.43 1.1-8.46 1.22-13 1l-2-2c5.08-1.26 9.73-2.27 15-2"/><path fill="#FEFDDF" d="m364 182 5 1c-3.41 1.87-6.9 3-10.62 4.13l-3.48 1.06c-2.9.81-2.9.81-4.9.81l1-3h3v-2h10z"/><path fill="#F0F6FB" d="M943 605h4v5l3 1c.88 1.81.88 1.81 1 4a71 71 0 0 1-3 4l-3.9-10.06C943 606 943 606 943 605"/><path fill="#FEFDE6" d="M324 604c7.26.37 7.26.37 11 3.56l2 2.44c-1.7.68-1.7.68-4 1-2.36-1.18-2.36-1.18-4.75-2.87l-2.42-1.68L324 605z"/><path fill="#116AB7" d="M656 585v9l-5-1v-7c3-1 3-1 5-1"/><path fill="#F8FAFC" d="M441 558a53 53 0 0 1-7.19 6.19l-2.17 1.6L430 567c-.62-1.87-.62-1.87-1-4l2-2h3v-2c3.63-2.12 3.63-2.12 7-1"/><path fill="#FDF713" d="M266 554c4.66 3.4 7.17 6.52 9 12-1.87-.25-1.87-.25-4-1-1-1.81-1-1.81-2-4a90 90 0 0 0-4-4z"/><path fill="#0F67B4" d="m513 386 1 2h3v4h-2l2 5-2 1c-4-6.5-4-6.5-4-11z"/><path fill="#2375BE" d="m931 365 2 1-4 1v4c-4.94 1.2-8.2.63-13-1v-1l2.27-.37 2.98-.5 2.95-.5c2.8-.63 2.8-.63 5.03-1.76z"/><path fill="#EEF4F9" d="M671 264h6c-1.19 3.38-2.28 5.65-5 8l-3-1v-3h2z"/><path fill="#FEF60E" d="M354 241a16 16 0 0 1-7 4.75l-2.06.8C343 247 343 247 340 246v-2l7-1v-2c2.67-1.33 4.17-.67 7 0"/><path fill="#8BCA2A" d="M196 199c3.38 1.19 5.65 2.28 8 5-3.64 2.43-5.71 2.16-10 2l1-2.37c1-2.63 1-2.63 1-4.63"/><path fill="#F4F9EC" d="m285 176 1 4h2v3h-4l-1 5-3-1 2.15-5.96C283 179 283 179 285 176"/><path fill="#EEF4FA" d="m1043.94 167.56 3.15-.06c2.9.5 2.9.5 6.9 4.5l-19-1c3.5-3.48 4.23-3.43 8.95-3.44"/><path fill="#DFECF5" d="M812 567h1c.57 9.64.57 9.64-3 14l-3 2c-.12-5.75-.12-5.75 1-8l3-1z"/><path fill="#E0ECF6" d="M497 358c3.04 3.04 3.6 4.21 4.69 8.19l.76 2.73.55 2.08a57 57 0 0 1-7-4z"/><path fill="#FEFEF9" d="m180 358 2 1-2 8-5-2v-6l4 1z"/><path fill="#F0F8E5" d="m235 173 2 3h-2v2h2l-1 2-2-1 1 9h-2l-2 4c-1.6-3.2-.05-6.2.88-9.5l.56-2.09c1.4-5.1 1.4-5.1 2.56-7.41"/><path fill="#0B66B8" d="m426 574 1 4h2l1 6h-5l-1 3 .68-7.52C425 577 425 577 426 574"/><path fill="#035DB1" d="m661 556 4 2-2 3v-2h-2l1 7c-2.44-.81-2.44-.81-5-2l-1-3z"/><path fill="#0F65B3" d="m621 410 2 1-1 4h3l1-4c.25 2.25.25 2.25 0 5-2 2.31-2 2.31-4 4l-4-2z"/><path fill="#186DB8" d="M560 333a36 36 0 0 1 4.13 8.56l1.07 2.94c.8 2.5.8 2.5.8 4.5h-5l1-7-3-1h2l-1.06-2.87C559 335 559 335 560 333"/><path fill="#0C66B3" d="M715 331h3c1.21 3.64.67 4.33-.94 7.69l-1.15 2.45L715 343l-2-1c-.25-7.62-.25-7.62 2-11"/><path fill="#E2EDF6" d="m996 274 8 1v2h2l1 5c-3.76 0-4.46-.96-7.19-3.44l-2.16-1.93L996 275z"/><path fill="#F8FBF4" d="M279 187c2 2 2 2 2 5l-3 2v2l-2 2-1 2h-2l-1-3 1.31-1.12c2.15-2.4 3.31-5 4.69-7.88z"/><path fill="#FDF820" d="M358 187v2c-4.21 3.26-8.88 4.05-14 5l-1-2 4.25-1.94 2.4-1.09c2.8-1.16 5.3-1.97 8.35-1.97"/><path fill="#DAE9F4" d="M895 607h1v12l-5 2-1-2c.74-1.8.74-1.8 1.88-3.87A29 29 0 0 0 895 607"/><path fill="#196CB8" d="M438 561v2h-2c1.5 3.01 4.03 3.61 7 5l-2 4h-2v-4a50 50 0 0 0-9-1l2.88-3 1.61-1.69C436 561 436 561 438 561"/><path fill="#0F68B5" d="M851 495h1c-.86 8.57-.86 8.57-3 12l-2-1v-3h-3l1-3 6-1z"/><path fill="#E7F1F8" d="M606 443c1.19 1.63 1.19 1.63 2 4-1.37 3.25-1.37 3.25-3 6-2.69-2.69-3.06-5.38-4-9z"/><path fill="#ECF3F9" d="M503 371c2.83 3.2 3.52 5.78 4 10h-5c-1.47-3.81-.43-6.29 1-10"/><path fill="#FEF71D" d="M417 220h7v2c-11.52 2.48-11.52 2.48-17 1v-2c6.63-.12 6.63-.12 10 1z"/><path fill="#8CCB26" d="m215 213 1 3-4 1 1 4-8-1v-3l10-2z"/><path fill="#93CE40" d="m224 210 3 1-2 10c-3.31-3.31-3.5-4.53-4-9h3z"/><path fill="#0C5DAB" d="m880 619 9 3v2h-10z"/><path fill="#E0ECF6" d="M951 618h2v7c-4.63 1.02-8.35.84-13 0v-1h9v-4h2z"/><path fill="#ECF2F8" d="M425 567h5c-1.16 3.91-2.36 6.88-5 10-1.12-6.62-1.12-6.62 0-10"/><path fill="#1D6DB7" d="m786 497 6 3c.2 3.68-.25 5.78-2 9q-1.01-1.87-2-3.75l-1.12-2.1C786 501 786 501 786 497"/><path fill="#2273BA" d="M926 300v2l-19-3v-1c7.46-1.2 12.29-1.84 19 2"/><path fill="#0D65B1" d="m732 287 2 2h3c-.66 4.39-2.19 7.98-4 12-1.1-3.32-.85-5.62 0-9l-2-1z"/><path fill="#FEFDE7" d="M349 616c3.66.4 6.78 2.32 10 4l-1 2c-4.39-.51-7.34-1.52-11-4z"/><path fill="#8BC52E" d="M219 206h7l1 4h-3v2h-3z"/><path fill="#8FCA30" d="M82 193v2l2 1h-2v3h-6l-1-4c4.75-2 4.75-2 7-2"/><path fill="#F5FAEF" d="m220 89 5 1-4 9-1-2h-2c0-3.77.24-4.91 2-8"/><path fill="#EBF3F9" d="M425 602c7 9.1 7 9.1 7 13l-1-2h-3v-2l-3-1v-4h-2v-2h2z"/><path fill="#FDF81C" d="M276 565a64 64 0 0 1 11 11l-2 1-2-1v-2l-1.81-.12c-2.19-.88-2.19-.88-3.94-3.82C276 567 276 567 276 565"/><path fill="#E7F1F8" d="M1010 378c2 3 2 3 2 6l-2 1v2h-6z"/><path fill="#1168B6" d="M633 376c3.94 3.32 3.94 3.32 4.25 6.75L637 385h-6z"/><path fill="#ECF4FA" d="M561 334h5v5h-2v3l4 1h-3l-1 2-1.5-4.37-.84-2.47C561 336 561 336 561 334"/><path fill="#FDF517" d="m278 291 3 1-9 10-1-2-2-1 3-1v-2h4v-4z"/><path fill="#8BC42F" d="M223 92c1.12 1.7 1.12 1.7 2 4-.68 2.36-.68 2.36-1.87 4.75l-1.19 2.42L221 105l-3-1q2.4-6.04 5-12"/><path fill="#DEEAF5" d="M875 620h4v4h8v1q-2.4.37-4.81.69l-2.71.38c-2.48-.07-2.48-.07-4.3-1.55L874 623z"/><path fill="#EFF5FA" d="M1048 616h5v7l-5 1z"/><path fill="#1469B4" d="m694 614 1 2c2.06.63 2.06.63 4 1l-1 3h5a29 29 0 0 1-8 3v-3h2v-2l-7-2z"/><path fill="#E9F1F7" d="M933 611c2 2.99 2.94 5.6 4 9h-5v-5h-2l1-3z"/><path fill="#D0E0EF" d="M814 596c2.68 1.98 3.04 3.16 3.81 6.5.19 3.5.19 3.5-1.81 6.5-.85-3.38-1.1-5.67 0-9h-2l-1 4c-.62-2.31-.62-2.31-1-5z"/><path fill="#1667B4" d="M927 569a57 57 0 0 1 5 9l-1 3h-2l-.37-1.94L928 577l-2-1 1-4-2-1h2z"/><path fill="#0F68B8" d="m702 568 5 2v-2h6v1h-5v2l2 1-1 4v-3h-2l1 3-2 1z"/><path fill="#EEF5FA" d="M927 567h2v2h2v-2h2c.19 2.81.19 2.81 0 6l-3 3z"/><path fill="#1169B8" d="M915 565c2.44.75 2.44.75 5 2 1.63 3.38 1.07 7.32 1 11-3.43-3.76-4.56-8.24-6-13"/><path fill="#ECF3F9" d="M1253 403h1c.96 4 1.1 7.7 1.06 11.81l-.02 3.52-.04 2.67h-2c-.73-6.21-1.23-11.84 0-18"/><path fill="#EAF2F8" d="M482 322c2.19 3.29 3 6.2 4 10l-5 1-1-4h2z"/><path fill="#E6F0F8" d="m728 310 .38 1.94.62 2.06 2 1-1 5h-5a43 43 0 0 1 3-10"/><path fill="#FDF61C" d="M216 291c1 3 1 3 1 7-2.87 2.18-4.36 3-8 3z"/><path fill="#0F67B9" d="M988 269a46 46 0 0 1 11 7l-1 2h-4v-2h-2l-1-3-3-2z"/><path fill="#8DC631" d="M212 170c1.9 2.85 2.46 4.42 3.13 7.69l.5 2.45.37 1.86-4-1q-.3-2.48-.56-4.94l-.32-2.78L211 171z"/><path fill="#2272B9" d="M668 620v2l9-1v2l-2 2a47 47 0 0 1-13-3c3-2 3-2 6-2"/><path fill="#085CA8" d="M829 603v7h-5v-6c3.88-1 3.88-1 5-1"/><path fill="#E0EDF5" d="m906 582 2 1-2 8h-2l-1 3h-2a70 70 0 0 1 5-12"/><path fill="#C0D9EC" d="m438 575 2 3c-.87 3.19-.87 3.19-2 6h-2v10h-1c-.35-7.13.04-12.47 3-19"/><path fill="#E1EDF6" d="m450 563 2 1c-.62 1.88-.62 1.88-2 4-2.94 1.13-2.94 1.13-6 2l-3 2c1.52-4.55 5.17-6.5 9-9"/><path fill="#186DBA" d="M617 419c2 2 2 2 2 5l2 1-2 3h-2l-1 2-2-1z"/><path fill="#FEFDEA" d="m187 333 4 1-3 10-1-4h-2c.88-4.75.88-4.75 2-7"/><path fill="#FEFDE8" d="m258 319 3 4-3 2-1 3h-4c1.1-3.77 1.9-6.47 5-9"/><path fill="#0D69B8" d="M719 315c2 0 2 0 4.13 2l1.87 2q-.9 3.03-2 6l-2 1-2-2h3l-1-3-2-1z"/><path fill="#8AC32D" d="M115 232h2v2l9 3v2l-4.31-.87-2.43-.5C117 237 117 237 114 235z"/><path fill="#9DC5E8" d="M1243 500h2l-1.37 4.75-.78 2.67A40 40 0 0 1 1240 514h-2q.68-2.38 1.38-4.75l.77-2.67A40 40 0 0 1 1243 500"/><path fill="#126BBB" d="m942 359 2 4-2 3-8-1c2.62-2.12 5.2-4.13 8-6"/><path fill="#FEFDE2" d="m264 310 .44 1.81q.69 2.63 1.56 5.19l-2 2h-5a29 29 0 0 1 5-9"/><path fill="#F2F7FB" d="M1007 281h3v3h2v6l2 1h-3a65 65 0 0 1-5-9z"/><path fill="#FDF416" d="m314 261 2 2-9 7-2-1c1-3 1-3 3-4.06l2-.94 1-2z"/><path fill="#0459AA" d="M703 250h11l1 3c-8.57.14-8.57.14-12-1z"/><path fill="#FDF823" d="M403 175v2c-4.54 1.45-8.18 2.24-13 2l-1-2c9.41-2.3 9.41-2.3 14-2"/><path fill="#FDFDEC" d="m281 636 7 4-1 3h-3v-2h-3v-2l-2-1z"/><path fill="#99C4E9" d="M1117 626c-1.75 3.88-1.75 3.88-4 5q-2.31.1-4.62.06l-2.48-.02-1.9-.04c4.06-2.7 8.05-5 13-5"/><path fill="#1365B1" d="m889 596 4 1-1 2v4l-6 1c1.88-5.75 1.88-5.75 3-8"/><path fill="#FEFDE5" d="M308 593c5.42-.37 5.42-.37 8.38 1.5L318 596l-4 3q-3.03-2.45-6-5z"/><path fill="#DEEBF5" d="m824 568 3 1v11l-4-1z"/><path fill="#D7E6F0" d="m695 550 1 3-18-1v-1c5.7-.64 11.27-1.12 17-1"/><path fill="#E7F1F9" d="M639 509c0 3.2-.24 4.4-2 7-2.44 1.13-2.44 1.13-5 2l-3 2v-3c2.19-2.04 2.19-2.04 5-4.19l2.81-2.16z"/><path fill="#E8F1F7" d="m944 354 1 4c-2.37 1.56-2.37 1.56-5 3l-2-1c2.15-6 2.15-6 6-6"/><path fill="#ECF3F9" d="M950 347c-1.62 6.75-1.62 6.75-5 9v-8c3-1 3-1 5-1"/><path fill="#FEFDE3" d="m322 258 2 1v3c-2.25 1.81-2.25 1.81-5 3-2.31-.81-2.31-.81-4-2z"/><path fill="#EEF6E1" d="M271 198a24 24 0 0 1 1 7l-2.25.88A88 88 0 0 0 263 209l1.24-1.65 1.63-2.16 1.62-2.15q1.82-2.47 3.51-5.04"/><path fill="#F5FAEE" d="m285 64 5 1c-.75 5.75-.75 5.75-3 8-1.5-3.37-2-5.2-2-9"/><path fill="#90C83D" d="M277 53a27 27 0 0 1 8 12l-1 2a20 20 0 0 1-5-7l-2-3z"/><path fill="#FDFDEA" d="M307 653a25.4 25.4 0 0 1 11 6l-9-1z"/><path fill="#1262AF" d="M937 619h3v2h4v2h5v1h-10z"/><path fill="#F2F6FA" d="m651 613 3.94 2.81 2.21 1.59C659 619 659 619 660 622l-6-2v-3l-5-1v-2z"/><path fill="#F2F7FB" d="M658 597c3 1.81 3 1.81 6 4v3l-5 1z"/><path fill="#F3F7FB" d="M446 570v3h-2l-1 4h-2v-2h-2c1.35-4.06 2.73-5 7-5"/><path fill="#126AB7" d="M544 465h2v3l3 1h-2l4 6-2 4-2.5-5.87-1.4-3.31C544 467 544 467 544 465"/><path fill="#EFF6FA" d="m593 421 5 1-1 9c-2.83-3.2-3.52-5.78-4-10"/><path fill="#E0ECF6" d="m624 403-3 10c-1-4-1-4-1-6l-2-1v-3c2-1 2-1 6 0"/><path fill="#1268B7" d="M485 329h3v2l4 1-2 1 1 5-2 1-2-3.87-1.12-2.19C485 331 485 331 485 329"/><path fill="#FDF723" d="m199 317 2 3-5 10h-2c.6-4.86 2.73-8.74 5-13"/><path fill="#F1F6FB" d="M558 319h3v5l-2 1c-.62 2.06-.62 2.06-1 4-1.59-2.52-2.04-3.68-1.69-6.69C557 320 557 320 558 319"/><path fill="#FEFDE6" d="m281 291 1 2q-.95 2.52-2 5v2h-5c1.31-3.94 2.92-6.23 6-9"/><path fill="#2170BB" d="M793 267c1 2 1 2 .44 4l-.44 2 2 2-7 3a41 41 0 0 1 5-11"/><path fill="#DDEAF5" d="M980 263c4.14.47 7 1 10 4v3l-10-5z"/><path fill="#F7FBF2" d="m255 50 4 1c-2.8 2.96-5.18 5.45-9 7 0-4 0-4 2-6h3z"/><path fill="#FDFDDC" d="M411 689c4.16-.08 7.95.02 12 1v1c-4.41 1.47-7.48 2.37-12 1z"/><path fill="#FEFDE4" d="m382 628-2 4-8-3c3.85-2.57 5.59-1.83 10-1"/><path fill="#BDD7EC" d="M684.38 615.5 686 617c-5.13.1-9.95.04-15-1v-1c9.17-2.16 9.17-2.16 13.38.5"/><path fill="#EFF5FA" d="m718 600 5 2-2 4h-5z"/><path fill="#0F65B9" d="M1005 553h9l1 2c-3.29 1.1-4.71.8-8 0l-1 4h-1z"/><path fill="#1B70B9" d="M971 407v1l-11 3-1-3c4.46-1.8 7.31-2.12 12-1"/><path fill="#1167B5" d="M580 386c3 5.63 3 5.63 3 9h-3l-4-8c2-1 2-1 4-1"/><path fill="#FEF71A" d="M207 304c.55 2.08 1 3.84 1 6h-2l-.19 1.88c-.81 2.12-.81 2.12-3.37 3.37L200 316l2.38-4.31 1.33-2.43A89 89 0 0 1 207 304"/><path fill="#2672BB" d="M469 264h1v6l-3 1v12h-1c-.55-13.82-.55-13.82 3-19"/><path fill="#DCEAF5" d="M512 250c6.26-.43 9.1.07 14 4l-2 2-3.19-1.94A22 22 0 0 0 512 251z"/><path fill="#95CE36" d="m216 214 4 4h-3c-2 2-2 2-3 4h-5c2.46-4.8 2.46-4.8 5.19-5.81L216 216z"/><path fill="#EDF7E0" d="M158 214q2.91.17 5.81.38l3.27.2C170 215 170 215 173 217c-5.71 1.61-9.69.09-15-2z"/><path fill="#FEFDE4" d="m310 204 5 1c-7.4 6-7.4 6-11 6v-2a250 250 0 0 1 6-4z"/><path fill="#8EC736" d="m96 188-1 4c-3.37.13-3.37.13-7 0l-2-2c6.63-2 6.63-2 10-2"/><path fill="#F8FBF3" d="M292 157h5l-1 8c-4-4.62-4-4.62-4-8"/><path fill="#FDFDE0" d="M318 659c5.02 1.18 8.1 2.45 12 6l-3 1-3-2v-2h-6z"/><path fill="#FEFDE2" d="M358 622h4v2l2.31-.62C367 623 367 623 370 625v2q-2.16-.39-4.31-.81l-2.43-.46c-2.5-.8-3.58-1.75-5.26-3.73"/><path fill="#0259AA" d="M816 613h2v2h3l-1 4-6-2z"/><path fill="#287AC2" d="M810 580c1.5 1.38 1.5 1.38 3 3v2l2 1 1 2h-3l-1-4h-9v-1l2.94-.94C809 581 809 581 810 580"/><path fill="#045BA9" d="m813 575 1 2h8l-2 5-7-2z"/><path fill="#FEFDE8" d="M270 557h6c1 3 1 3 .06 5.19L275 564c-5-5.87-5-5.87-5-7"/><path fill="#ECF3F8" d="M922 555h5c.13 3.38.13 3.38 0 7l-2 2z"/><path fill="#0C69BC" d="m805 554 11 2c-4.53 2.27-6.18 1.93-11 1z"/><path fill="#FDFDE3" d="M188 524h2c4 6.75 4 6.75 4 9h-3l-2-4h-2z"/><path fill="#FEFDEC" d="m178 506 6 1v4c-3.75 1.13-3.75 1.13-6 0z"/><path fill="#FEFDE9" d="m179 496 2 4h-2l-1 3-3-1v-5z"/><path fill="#FDFBB4" d="M170 438h1l1 20h-1c-1.91-4.75-2.1-8.3-1.62-13.37l.33-3.78z"/><path fill="#E3EFF7" d="m1015 369 3 3-1 3v-2h-2v5h-4l.88-1.69A97 97 0 0 0 1015 369"/><path fill="#166BB7" d="M572 366a57 57 0 0 1 4 10l-4 1v-4l-3-1 1-3v2h2z"/><path fill="#0F64B1" d="m1012 366 4 1c-1.62 6.75-1.62 6.75-5 9l-1-4h3z"/><path fill="#DEEBF6" d="M723 322c1.04 3.38 1.08 6.48 1 10l-5 1c1.04-3.87 2.04-7.5 4-11"/><path fill="#DFEDF6" d="m1022 312 4 4-3 9h-1l-.56-5.37-.32-3.03c-.12-2.6-.12-2.6.88-4.6"/><path fill="#176BB8" d="M1010 288c4 4.75 4 4.75 4 7l-4 2v-4l-3-1 2-1z"/><path fill="#1C6FBA" d="M970 261c6.63.75 6.63.75 10 3v3l-5-1-1-4z"/><path fill="#1164B3" d="M947 255q2.13.18 4.25.38l2.4.2c2.44.43 4.2 1.2 6.35 2.42h-3l-1 2v-2l-3.37.06C949 258 949 258 947 257z"/><path fill="#1868B3" d="m460 589 6 1-2 1v2l3 1q-3 .57-6 1c-1-1-1-1-1.06-3.56z"/><path fill="#1469B4" d="m708 584 1 4 4 1-1 4h-4z"/><path fill="#0B69BE" d="m921 579 3 1v2l4 1-2 4-3-1c-1.19-3.56-1.19-3.56-2-7"/><path fill="#D6E7F4" d="M845 511v7l-6 1-1-2z"/><path fill="#FEFDE3" d="M176 484h1c2.28 8.04 2.28 8.04 1 12l-2-4-3 1v-3h3l-.56-2.44L175 485z"/><path fill="#D7E8F4" d="m953 413-1 2c-4.66 1.1-9.37 1.34-14 0v-1c5.02-.62 9.92-1.13 15-1"/><path fill="#0F65B4" d="m507 380 6 1 1 4-4 1z"/><path fill="#FEFDE9" d="M178 367c1 3 1 3-.25 5.69L176 375h-3v-5l5-1z"/><path fill="#D6E6F3" d="M1020 355c2.74 3.43 3 4.65 3 9h-5z"/><path fill="#1068B5" d="M943 310h5l3 10h-2c-1.44-2.19-1.44-2.19-3-5l-1.69-2.81z"/><path fill="#E9F1F8" d="M1020 304c2.06.44 2.06.44 4 1v4l-4 2q-.57-3-1-6z"/><path fill="#8BC734" d="m187 227 7 2v3h-5z"/><path fill="#8DC935" d="m254 55 3 3-1 2q-3.49.6-7 1c1.37-3.16 1.99-4 5-6"/><path fill="#FDFDE8" d="M271 630c4 .62 6.75 2.7 10 5l-3 2c-2.69-.87-2.69-.87-5-2v-4z"/><path fill="#FCF619" d="m269 626 7 1 2 5c-4.41 0-5.78-2.07-9-5z"/><path fill="#E6F0F7" d="m715 606 1 2h3v2h-3l-1 4-4-1 1.44-2.37q1.36-2.27 2.56-4.63"/><path fill="#1067B6" d="M542 457c2.06.44 2.06.44 4 1l-1 5h-3a89 89 0 0 1-1-5z"/><path fill="#E9F2F9" d="M668 451h3v6h-5z"/><path fill="#DDEBF5" d="m584 399 3 1v2h2v3l2 1-3 3-2-3.87-1.12-2.19C584 401 584 401 584 399"/><path fill="#ECF4FA" d="m715 340 1 2h3v5l-5-1z"/><path fill="#166AB8" d="m662 299 4 1v4h-4l-1 3c-1.2-3.62-.54-4.64 1-8"/><path fill="#146AB9" d="M1003 282c3.37 1.4 4.99 2.98 7 6l-5 2v-4l-2-1z"/><path fill="#E4EFF7" d="M807 254c2.2.91 2.2.91 4 2l-3.87 2-2.18 1.13C803 260 803 260 801 260v-3c2.75-1.62 2.75-1.62 6-3"/><path fill="#97CD40" d="m161 242 9 1v1c-6.03 1.07-11.89 1.1-18 1v-1h9z"/><path fill="#FEFCD6" d="m394 229-6 1-1 3h-9a30 30 0 0 1 7.44-3.69l2.3-.82c2.48-.54 3.89-.3 6.26.51"/><path fill="#F2F9EA" d="m264 210-3 6h-2l-1 2v-2l-2-1c4.63-5 4.63-5 8-5"/><path fill="#FDF819" d="m333 196 3 1-1 3c-3.2 1.37-5.7.82-9 0l1.81-.87C330 198 330 198 333 196"/><path fill="#F1F9E9" d="m68 196 5 1c-3.75 3-3.75 3-6 3l-1 2-3-3 5-1z"/><path fill="#1165B2" d="m945 615 3 1 1 6h-4z"/><path fill="#196CB8" d="m703 605 2 1c-.12 2.31-.12 2.31-1 5-2.94 1.88-2.94 1.88-6 3l-2-1 4.59-3.61C702 608 702 608 703 605"/><path fill="#E5EFF7" d="m438 600 5 2v6l2 1h-3c-4-5.14-4-5.14-4-9"/><path fill="#FDF619" d="m298 586 8 6-4 1c-2.25-1.75-2.25-1.75-4-4z"/><path fill="#1467B2" d="M905 579h2c-.75 4.75-.75 4.75-3 7v-2l-6-1v-1l2.94-.37L904 581z"/><path fill="#FCF513" d="M221 577a40 40 0 0 1 8 5l-2 4-3-3.94-1.69-2.21C221 578 221 578 221 577"/><path fill="#FEFDE7" d="M254 535h2v2l4 1v6c-5.57-5.14-5.57-5.14-6-9"/><path fill="#FEFDE4" d="M229 477h1v5l4 1v3h-2l-1 3c-2-4.12-2.18-7.45-2-12"/><path fill="#EBF4FA" d="m662 465 4 2-1 4h-5z"/><path fill="#0C66B5" d="M998 387c2.19.31 2.19.31 4 1l-5 5-2-3c1.25-1.56 1.25-1.56 3-3"/><path fill="#EEF4F9" d="M639 346h4l1 5h-5z"/><path fill="#ECF3F9" d="m944 312 5 5-1 2h-3l-1 2c-1.12-5.62-1.12-5.62 0-9"/><path fill="#8DC839" d="M226 195h3l-1 11c-2-2-2-2-2.2-4.16l.07-2.47.06-2.47z"/><path fill="#FEFEEC" d="m348 187 1 3-7 3v-4z"/><path fill="#FEFEE4" d="m395 173 8 1v1c-3.88 1.2-6.92 2-11 2v-2h3z"/><path fill="#8AC634" d="m286 165 3 1-3 10h-1c-.14-7.43-.14-7.43 1-11"/><path fill="#1167B6" d="M426 599c2 1.19 2 1.19 4 3 .25 2.69.25 2.69 0 5l-2 1c-1.56-2.81-1.56-2.81-3-6z"/><path fill="#1068B9" d="m646 575 1 2h2c-.56 3.27-1.5 4.83-4 7-1.6-3.2-.03-5.72 1-9"/><path fill="#1E6EBA" d="M819 560c1.94.56 1.94.56 4 2a36 36 0 0 1 1 7h-2l-1-5h-3z"/><path fill="#0E65B3" d="m910 559 5 1v4h-2l-1 2v-3l-3-1z"/><path fill="#FEFDE2" d="m267 548 1 3-1 2 5 2-3 2-5-6z"/><path fill="#E9F2F9" d="M850 503c.83 3.31 1.1 5.66 1 9l-5-1z"/><path fill="#136CBA" d="M598 436a30 30 0 0 1 2 4l-1 2-6-1v-3z"/><path fill="#E6F0F8" d="M975.44 406.88 977 408c-2.69 1.63-2.69 1.63-6 3-2.87-.81-2.87-.81-5-2v-1c6.4-2.21 6.4-2.21 9.44-1.12"/><path fill="#0E63B1" d="M999 383h7c-1.75 3.88-1.75 3.88-4 5v-2l-3-1z"/><path fill="#186DBC" d="m639 360 2 3c-.87 3.69-.87 3.69-2 7h-3z"/><path fill="#1367B7" d="m647 340 2 2-1 3 1 1v2l-5 1z"/><path fill="#FEFCDA" d="M248 335c.55 2.08 1 3.84 1 6h-2v2l2 1-5-1a37 37 0 0 1 4-8"/><path fill="#FCF310" d="m241 340 4 1-3 7-3-1v-2h2z"/><path fill="#EAF1F8" d="M658 305h2c-.55 3.38-1.05 5.08-3 8-2-3-2-3-2-6h3z"/><path fill="#146BB7" d="m938 303 4 2v2l2 2c-4 0-4 0-6.25-2l-1.75-2h2z"/><path fill="#E8F3D9" d="M249 230h2v2l2 1h-2l.56 2.19c.46 2.94.18 4.95-.56 7.81h-1z"/><path fill="#8EC533" d="M167 212c2 .25 2 .25 4 1l3 1v2l-10-1z"/><path fill="#F4F9EC" d="m288 73 5 1c-.57 2.87-.86 3.86-3 6-1.46-2.65-2-3.9-2-7"/><path fill="#DFEBF6" d="M706 617h2c-.12 1.88-.12 1.88-1 4-3.06 1.25-3.06 1.25-6 2l-2-2 2.38-.87C704 619 704 619 706 617"/><path fill="#D8E9F6" d="M594 616h3v7h-3z"/><path fill="#E9F2F8" d="m433 614 7 5-2 2-7-4 2-1z"/><path fill="#075EAF" d="m937 613 5 2v-2l4 1-1 2h-8l-1 2z"/><path fill="#FEFDEB" d="M339 612c5.75.75 5.75.75 8 3v2c-3.44-.81-3.44-.81-7-2z"/><path fill="#E6EFF7" d="m884 603 2 1-3 8-2-1c-.37-4.55-.37-4.55 1.5-6.81z"/><path fill="#FEFDE1" d="m324 600-1 4a19 19 0 0 1-7-5c3.62-1.2 4.64-.54 8 1"/><path fill="#1063B3" d="M818 589c2.38.25 2.38.25 5 1 1.31 2.06 1.31 2.06 2 4l-7-1z"/><path fill="#1F73BC" d="m424 590 4 1v4h-3l-1 4z"/><path fill="#FDFDE8" d="m301 588 8 1 1 3c-1.69.81-1.69.81-4 1-2.75-2.44-2.75-2.44-5-5"/><path fill="#E8F2F8" d="M703 571c1.5 1.31 1.5 1.31 3 3v3h-5v-4h2z"/><path fill="#FEFDE9" d="M288 573h2v3l4 2-1 3-7-6z"/><path fill="#EDF4F9" d="m548 551 10 1v1l-12 1z"/><path fill="#FEFDD4" d="m232 490 1 3 5 1-2 1v5c-2.83-3.2-3.52-5.78-4-10"/><path fill="#FDF616" d="m177 485 5 1v3c-2 1.69-2 1.69-4 3z"/><path fill="#0E66B3" d="m552 478 3 1v2h-3l3 3-2 4-3-9z"/><path fill="#1F72BB" d="M593 424a17 17 0 0 1 3 7l-3 1v-3l-3 1-1-2h3z"/><path fill="#DCEAF5" d="M680 422c1.5 1.31 1.5 1.31 3 3v3l-5 1c.88-4.75.88-4.75 2-7"/><path fill="#156AB6" d="m523 409 3 1v4l-4 2-1-5h2z"/><path fill="#EEF4FA" d="m582 391 5 1-2 7c-1.95-2.92-2.45-4.62-3-8"/><path fill="#E8F1F8" d="M574 366h4c-.31 2.38-.31 2.38-1 5l-3 2c-1.12-4.75-1.12-4.75 0-7"/><path fill="#176BB8" d="M479 313h5l-2 1 1 8-1-2h-2z"/><path fill="#E7F1F8" d="M1015 296h2v3h4l-2 5-2-1q-1.1-3.47-2-7"/><path fill="#EDF3F8" d="M737 263h6l-1 5c-1.94-.81-1.94-.81-4-2z"/><path fill="#EEF5F9" d="M524 252c2.06.44 2.06.44 4 1v3h2l-2 4-1.37-2.37C525 255 525 255 523 253z"/><path fill="#2E78C0" d="m714 250 3.81.38 2.15.2C722 251 722 251 725 253l-4 1v-2l-6 1z"/><path fill="#F2F7FB" d="M1122 243c4.87.45 7.39 1.7 11 5-1.81.69-1.81.69-4 1-1.5-1.25-1.5-1.25-3-3a167 167 0 0 0-4-3"/><path fill="#F1F7E6" d="m67 202 5 5-2 3h-3z"/><path fill="#8AC32E" d="m229 83 3 2-3 5-3-2z"/><path fill="#8BC631" d="m284 70 2 1v2h2l2 6c-1.94-.75-1.94-.75-4-2-.62-2.06-.62-2.06-1-4l-2-1z"/><path fill="#FEFDED" d="M411 688v3h-7l-1-2c2.93-.98 4.96-1.08 8-1"/><path fill="#FDFDEC" d="m290 644 6 1v3l-6-1z"/><path fill="#1468B7" d="M652 609h2l.38 1.94.62 2.06 2 1-1 3-5-4z"/><path fill="#146CBA" d="m933 609 5 2-2 5c-2.36-2.36-2.5-3.78-3-7"/><path fill="#0E69BA" d="m776 554 5 1-1 4-4-1z"/><path fill="#E9F2F8" d="m699 554 6.74.68C708 555 708 555 711 556l-1 2-4.94-.87-2.77-.5L700 556z"/><path fill="#F2F7FB" d="m456 551 1 2-9 2-1-2c3.13-1.86 5.38-2.2 9-2"/><path fill="#FEF71E" d="M259 544q2.55 2.44 5 5v2h-4z"/><path fill="#FEF620" d="M253 534c2.4 2.4 3.54 4.94 5 8-2.87-.57-3.86-.86-6-3 .38-2.62.38-2.62 1-5"/><path fill="#FEFDE8" d="m248 525 5 2-1 5c-2-1-2-1-3.12-4.06z"/><path fill="#ECF4F9" d="M787 503c1.9 2.39 3.02 4.07 4 7l-5 1z"/><path fill="#2977BD" d="M600 443c2.5 2.94 3.47 5.18 4 9l-2 1-3-1v-3l2-1z"/><path fill="#1267B6" d="M611 436h3l-1 7-4 1z"/><path fill="#EAF2F8" d="M516 401c2 2 2 2 2 5l-5 1v-4h3z"/><path fill="#1466B1" d="M627 392c2 1.31 2 1.31 4 3v3l-5 1z"/><path fill="#EEF4F9" d="m580 373 1 5c-3 0-3 0-5-1v-3c2-1 2-1 4-1"/><path fill="#0F67B6" d="M492 345h3v2l4-1-1 3-2-1 1 4-2 1z"/><path fill="#DDEAF5" d="M474 304c2.14 2.14 2.63 3.06 3 6l-2 2-2-1q-.06-3 0-6z"/><path fill="#EBF2F9" d="m919 300 9 2-1 2-7-1z"/><path fill="#1368B6" d="M1015 298c2.14 2.14 2.43 3.13 3 6h-6v-5l1 3h2z"/><path fill="#146BB9" d="m515 251 5 2c-2 2-2 2-5.62 2.13L511 255l1-2 2 1z"/><path fill="#FEFEE7" d="M374 178c3 1 3 1 4 3l-8 2-1-2h3v-2z"/><path fill="#92C93B" d="M217 104c2 2 2 2 2.13 4.63L219 111l-4 2z"/><path fill="#F3F8EA" d="m232 73 2 1c-.48 4.31-1.75 6.17-5 9l-1-4 4-1z"/><path fill="#FDFDE6" d="M343 671c4.45-.4 7.14.85 11 3v1h-7v-3z"/><path fill="#D7E6F2" d="M664 610h5l2 5c-3.65-1.25-4.78-1.67-7-5"/><path fill="#E8F0F7" d="M645 600c1.2 2.33 2.16 4.5 3 7h-6z"/><path fill="#F1F7FC" d="m1245 595 2 1c-.81 1.94-.81 1.94-2 4l-3 1-2 3-2-1 2.38-2.31C1243 598 1243 598 1245 595"/><path fill="#D9E9F4" d="M917 574h2q1.6 2.96 3 6l-1 2c-2-1-2-1-4-4z"/><path fill="#CDDFEF" d="M488 557h5c-.53 3.82-1.5 6.06-4 9z"/><path fill="#0D68BA" d="m608 445 5 2-4 4c-1.06-1.87-1.06-1.87-2-4z"/><path fill="#0C66B4" d="M680 417h2l-3 9-2-1c1.88-5.75 1.88-5.75 3-8"/><path fill="#CBE1F1" d="M692 393h1c.2 6.06.2 6.06 0 8l-2 2-2-1z"/><path fill="#E6F1F8" d="m1017 365 4 1-1 4-4-1z"/><path fill="#9BC4E7" d="M1398 342c5.75.75 5.75.75 8 3-2.6.93-3.64 1.15-6.25.06L1398 344z"/><path fill="#1369B6" d="m484 321 4 1c-1.75 3.88-1.75 3.88-4 5-1.12-3.75-1.12-3.75 0-6"/><path fill="#0A65B6" d="m738 281 2 1-2 7-.31-1.94L737 285l-3-1h2l1-2z"/><path fill="#166DBD" d="m960 258 10 2v1h-10z"/><path fill="#FDF623" d="m270 234 2 3c-2.69 2.69-5.38 3.06-9 4z"/><path fill="#F7FAF1" d="m86 221 5 2v3h-3v-2l-3-1z"/><path fill="#FEFCD8" d="M387 633h10l-1 3c-3.74-.5-5.81-.87-9-3"/><path fill="#1869B3" d="M662 617v4c-4.87-1.75-4.87-1.75-6-4 2.5-1.25 3.41-.78 6 0"/><path fill="#1A6CBA" d="m892 588 2 3-1 2h2v2l-5-1z"/><path fill="#FDFDE6" d="M221 581c1.81.19 1.81.19 4 1a31 31 0 0 1 3 5c-2.94-.75-2.94-.75-6-2-.87-2.12-.87-2.12-1-4"/><path fill="#0865B7" d="m812 581 6 1-1 3h-4z"/><path fill="#2272BC" d="M900 569c4 4.88 4 4.88 4 6l-6 1z"/><path fill="#FEFDE6" d="M282 567h2v3l2 1-1 3-5-5z"/><path fill="#E7EFF6" d="M805 562c2.89.4 3.82.79 5.75 3.06L812 567c-3 0-3 0-5-1v-2h-2z"/><path fill="#E7F0F7" d="M441 558c-2.17 2.5-3.73 3.44-7 4v-3c3.63-2.12 3.63-2.12 7-1"/><path fill="#1162AF" d="m661 556 4 2-2 3v-2h-2v2h-3c1.88-3.87 1.88-3.87 3-5"/><path fill="#DAE9F4" d="m807 551 6 2-2 2c-2.73-.03-5.3-.56-8-1l4-1z"/><path fill="#EDF3F6" d="M471 551c3.38-.12 3.38-.12 7 0l2 2c-3.32 1.1-5.62.85-9 0z"/><path fill="#DAE7F3" d="m917 550 4 1-1 3-10-1v-1h7z"/><path fill="#055AA7" d="m615 518 6 1v2h-7z"/><path fill="#186BB5" d="M560 500h3v4l4 2-2 2c-2.25-2.69-3.88-4.65-5-8"/><path fill="#E2EDF6" d="M553 488c3 3.63 3 3.63 3 7h-4z"/><path fill="#E9F1F8" d="M522 424h4l2 4h-6z"/><path fill="#1568B9" d="M625 399c1.13 1.69 1.13 1.69 2 4-.87 2.75-.87 2.75-2 5l-3-1z"/><path fill="#F3F8FB" d="M1003 387c3.13-.19 3.13-.19 6 0l-2 3c-3.12.19-3.12.19-6 0z"/><path fill="#DBEAF5" d="m703 368 4 2v3h-5z"/><path fill="#FEFCDC" d="m234 364 1 2 3 1h-3l-.37 1.88C234 371 234 371 232 373c.88-6.75.88-6.75 2-9"/><path fill="#E8F0F8" d="M572 359h3c-.75 4.75-.75 4.75-3 7-1.12-4.75-1.12-4.75 0-7"/><path fill="#D7E5F2" d="M494 349a29 29 0 0 1 3 8l-3-1v-2l-4-1 4-1z"/><path fill="#EFF5FB" d="M1234 345a21 21 0 0 1 3 4c-.31 2.25-.31 2.25-1 4h-3z"/><path fill="#1F70BB" d="m951 343 2 2a20 20 0 0 1-2 7h-2z"/><path fill="#1C6FBC" d="m650 331 2 3c-.75 2.63-.75 2.63-2 5l-2 1c.88-6.75.88-6.75 2-9"/><path fill="#EDF5FA" d="m561 326 2 1v4h-2l-1 2c-.62-1.81-.62-1.81-1-4z"/><path fill="#E3EDF6" d="M550 305h4v4h-2l-1 2z"/><path fill="#EDF4F9" d="M916 299v2l2 1-11-1v-1c3.15-.7 5.73-1 9-1"/><path fill="#1E6FBB" d="m665 292 2 1-1 5 2 1h-5z"/><path fill="#0E67B6" d="m468 281 4 5h-2l-1 3-2-2c.38-3.12.38-3.12 1-6"/><path fill="#F4F7FB" d="m784 275 4 2-1 5-3-1z"/><path fill="#166CBB" d="m526 257 6 5-2 2-5-4z"/><path fill="#EEF4FA" d="M469 258h5l-4 6-1-3-2-1h2z"/><path fill="#347CC2" d="m701 251-2.25.88A82 82 0 0 0 692 255l-2-2c7.43-3.57 7.43-3.57 11-2"/><path fill="#FEFCDB" d="m336 250 1 2c-1.19 1.5-1.19 1.5-3 3-2.69.19-2.69.19-5 0 4.75-3.87 4.75-3.87 7-5"/><path fill="#EEF6E4" d="m229 194 1 3h2v3h-2v2h-2z"/><path fill="#ECF5DF" d="M279 187c2 2 2 2 2 5l-5 1c1.88-4.87 1.88-4.87 3-6"/><path fill="#F0F7E5" d="M213 186c2 3 2 3 2 5l-4 2v-6z"/><path fill="#8DC733" d="M290 154h3l-1 7-1-2h-2z"/><path fill="#FDFDDD" d="M299 648c3.38 1.19 5.65 2.28 8 5-3.37-.55-5.08-1.05-8-3z"/><path fill="#ECF3F9" d="M811 623v3h-7v-2a24 24 0 0 1 7-1"/><path fill="#D8E8F4" d="M489 619h3l-2 4-6-1 1.94-.94C488 620 488 620 489 619"/><path fill="#E5EFF7" d="M824 615h2l1 4-7 1q1.93-2.55 4-5"/><path fill="#1B6DB8" d="M826 595c3 3 3 3 3.19 5.69L829 603l-2 1z"/><path fill="#116BB8" d="m431 593 5 1-1 4-4-2z"/><path fill="#FEFDE7" d="M299 582v2h2l1 3c-3 0-3 0-5.19-2l-1.81-2c2-1 2-1 4-1"/><path fill="#1C70BE" d="m482 555 6 2v1h-9z"/><path fill="#E9F1F7" d="m1003 551 9 1v1l-10 1z"/><path fill="#0D65B2" d="m835 515 3 1v2l-5 2-2-2c1.81-1.56 1.81-1.56 4-3"/><path fill="#196DB4" d="m628 514 3 1v2l-6 2v-3z"/><path fill="#186CB6" d="M557 492h3l-1 7c-1.56-1.25-1.56-1.25-3-3 .31-2.19.31-2.19 1-4"/><path fill="#F1F6FB" d="M678 431h3v4h-5c1-3 1-3 2-4"/><path fill="#EDF4F9" d="m519 408 2 2c-.37 2.13-.37 2.13-1 4h-3v-4h2z"/><path fill="#ECF4FA" d="m995 394 2 1v2h-2v2l-5-1z"/><path fill="#E6EFF8" d="m635 362 3 2-1 6-1-4h-2z"/><path fill="#FDFDDA" d="m180 358 2 1-2 8h-1v-5l-2-1z"/><path fill="#FCF413" d="m238 349 3 1c-.81 1.94-.81 1.94-2 4l-3 1-2-3h4z"/><path fill="#F3F7FB" d="m1231 339 3 4-2 1-1 3c-1.12-1.75-1.12-1.75-2-4 .88-2.25.88-2.25 2-4"/><path fill="#EFF5FA" d="m649 330 2 1-2 5h-2l-1-5z"/><path fill="#1C6FBA" d="m472 298 4 2v6c-2.9-2.4-3.5-4.31-4-8"/><path fill="#2272B9" d="M470 290h2a43 43 0 0 1 1 6l-2 2-2-7z"/><path fill="#92D22C" d="M249 246h2c.75 1.75.75 1.75 1 4-1.94 2.25-1.94 2.25-4 4z"/><path fill="#FDF61E" d="m349 240 5 1c-1.31 1.5-1.31 1.5-3 3h-3z"/><path fill="#8DC436" d="m221 220 3 4-7-1v-2z"/><path fill="#8BC52B" d="M74 208h5l-2 4-4-2z"/><path fill="#8AC42D" d="M98 187h3l1 5h-5z"/><path fill="#87C52F" d="M281 176h4c-1.07 2.91-1.78 4.78-4 7z"/><path fill="#D8EBB9" d="M243 151h1v11l-1-4h-2z"/><path fill="#F5FAEE" d="m298 148 1 2-2-1zm-4 1 3 2-2 4h-2z"/><path fill="#F5F9ED" d="M276 50h5v4l-3 1z"/><path fill="#89C636" d="m271 43 2 4-2 1c-2.62-.94-2.62-.94-5-2 2.75-3 2.75-3 5-3"/><path fill="#F6FAEF" d="m265 45-1 3c-2.56 1.19-2.56 1.19-5 2l-1-3c4.75-2 4.75-2 7-2"/></svg>